# Wavefront .OBJ file for tesselated shape: Upper Leg.step-1/Sunfounder Servo 55g.step-1/Sunfounder Servo 55g-25.step-1 path: C:\Users\matta\AppData\Local\Temp\swx18596\IC~~\Sunfounder Servo 55g-25.step.SLDPRT

g body_1
v -0.008994 0.002329 0.039400
v -0.008928 0.002547 0.039400
v -0.008789 0.002476 0.039400
v -0.008803 0.002224 0.039400
v -0.008654 0.002397 0.039400
v -0.008622 0.002104 0.039400
v -0.009192 0.002417 0.039400
v -0.008803 0.002224 0.039400
v -0.008622 0.002104 0.039400
v -0.008622 0.002104 0.043400
v -0.008994 0.002329 0.039400
v -0.008803 0.002224 0.043400
v -0.009192 0.002417 0.039400
v -0.008994 0.002329 0.043400
v -0.009192 0.002417 0.043400
v -0.009192 0.002417 0.039400
v -0.009046 0.002489 0.043303
v -0.008928 0.002547 0.043200
v -0.009192 0.002417 0.043400
v -0.009162 0.002432 0.043400
v -0.008928 0.002547 0.039400
v -0.008622 0.002104 0.039400
v -0.008640 0.002265 0.043303
v -0.008626 0.002137 0.043400
v -0.008654 0.002397 0.039400
v -0.008654 0.002397 0.043200
v -0.008622 0.002104 0.043400
v -0.008994 0.002329 0.043400
v -0.008803 0.002224 0.043400
v -0.008796 0.002249 0.043400
v -0.008977 0.002348 0.043400
v -0.009162 0.002432 0.043400
v -0.008622 0.002104 0.043400
v -0.008626 0.002137 0.043400
v -0.009192 0.002417 0.043400
v -0.008789 0.002476 0.039400
v -0.008928 0.002547 0.039400
v -0.008888 0.002527 0.043200
v -0.008928 0.002547 0.043200
v -0.008789 0.002476 0.043200
v -0.008693 0.002420 0.043200
v -0.008654 0.002397 0.039400
v -0.008654 0.002397 0.043200
v -0.008977 0.002348 0.043400
v -0.008796 0.002249 0.043400
v -0.008789 0.002476 0.043200
v -0.008693 0.002420 0.043200
v -0.008888 0.002527 0.043200
v -0.008928 0.002547 0.043200
v -0.009046 0.002489 0.043303
v -0.008640 0.002265 0.043303
v -0.008654 0.002397 0.043200
v -0.008626 0.002137 0.043400
v -0.009162 0.002432 0.043400
vn 0.000 0.000 -1.000
vn 0.000 0.000 -1.000
vn 0.000 0.000 -1.000
vn 0.000 0.000 -1.000
vn 0.000 0.000 -1.000
vn 0.000 0.000 -1.000
vn 0.000 0.000 -1.000
vn -0.518 -0.855 0.000
vn -0.588 -0.809 0.000
vn -0.588 -0.809 0.000
vn -0.445 -0.896 0.000
vn -0.518 -0.855 0.000
vn -0.368 -0.930 0.000
vn -0.445 -0.896 0.000
vn -0.368 -0.930 0.000
vn -0.442 0.897 0.000
vn -0.442 0.897 0.000
vn -0.442 0.897 0.000
vn -0.442 0.897 0.000
vn -0.442 0.897 0.000
vn -0.442 0.897 0.000
vn 0.994 0.108 0.000
vn 0.994 0.108 0.000
vn 0.994 0.108 0.000
vn 0.994 0.108 0.000
vn 0.994 0.108 0.000
vn 0.994 0.108 0.000
vn 0.000 0.000 1.000
vn 0.000 0.000 1.000
vn 0.000 0.000 1.000
vn 0.000 0.000 1.000
vn 0.000 0.000 1.000
vn 0.000 0.000 1.000
vn 0.000 0.000 1.000
vn 0.000 0.000 1.000
vn 0.482 0.876 0.000
vn 0.433 0.902 0.000
vn 0.447 0.895 0.000
vn 0.433 0.902 0.000
vn 0.482 0.876 0.000
vn 0.516 0.857 0.000
vn 0.529 0.848 0.000
vn 0.529 0.848 0.000
vn 0.316 0.633 0.707
vn 0.365 0.606 0.707
vn 0.341 0.620 0.707
vn 0.365 0.606 0.707
vn 0.316 0.633 0.707
vn 0.306 0.638 0.707
vn 0.287 0.646 0.707
vn 0.392 0.588 0.707
vn 0.374 0.600 0.707
vn 0.411 0.576 0.707
vn 0.266 0.655 0.707
vt -0.0001 0.0000 0
vt 0.0000 0.0002 0
vt 0.0001 0.0002 0
vt 0.0001 -0.0001 0
vt 0.0003 0.0001 0
vt 0.0003 -0.0002 0
vt -0.0003 0.0001 0
vt 1.6126 0.0040 0
vt 1.6961 0.0040 0
vt 1.6961 0.0000 0
vt 1.5290 0.0040 0
vt 1.6126 0.0000 0
vt 1.4455 0.0040 0
vt 1.5290 0.0000 0
vt 1.4455 0.0000 0
vt -0.0040 0.0000 0
vt -0.0001 0.0002 0
vt -0.0002 0.0003 0
vt 0.0000 0.0000 0
vt 0.0000 0.0000 0
vt -0.0040 0.0003 0
vt 0.0040 -0.0003 0
vt 0.0001 -0.0001 0
vt 0.0000 -0.0003 0
vt 0.0040 0.0000 0
vt 0.0002 0.0000 0
vt 0.0000 -0.0003 0
vt -0.0001 0.0000 0
vt 0.0000 -0.0001 0
vt 0.0001 -0.0001 0
vt -0.0001 0.0000 0
vt -0.0003 0.0001 0
vt 0.0002 -0.0003 0
vt 0.0002 -0.0002 0
vt -0.0003 0.0000 0
vt 6.2279 0.0040 0
vt 6.1725 0.0040 0
vt 6.1885 0.0002 0
vt 6.1725 0.0002 0
vt 6.2279 0.0002 0
vt 6.2672 0.0002 0
vt 6.2832 0.0040 0
vt 6.2832 0.0002 0
vt 6.1885 -0.0001 0
vt 6.2672 -0.0001 0
vt 6.2279 0.0001 0
vt -0.0159 0.0001 0
vt 6.1885 0.0001 0
vt 6.1725 0.0001 0
vt 6.1426 0.0000 0
vt 0.0300 0.0000 0
vt 0.0000 0.0001 0
vt 0.0614 -0.0001 0
vt 6.1111 -0.0001 0
f 4/4/4 3/3/3 5/5/5
f 4/4/4 5/5/5 6/6/6
f 1/1/1 3/3/3 4/4/4
f 3/3/3 1/1/1 2/2/2
f 2/2/2 1/1/1 7/7/7
f 28/28/28 30/30/30 31/31/31
f 34/34/34 29/29/29 33/33/33
f 32/32/32 28/28/28 31/31/31
f 30/30/30 28/28/28 29/29/29
f 28/28/28 32/32/32 35/35/35
f 29/29/29 34/34/34 30/30/30
f 13/13/13 14/14/14 15/15/15
f 11/11/11 12/12/12 14/14/14
f 14/14/14 13/13/13 11/11/11
f 12/12/12 11/11/11 8/8/8
f 8/8/8 10/10/10 12/12/12
f 10/10/10 8/8/8 9/9/9
f 18/18/18 16/16/16 17/17/17
f 20/20/20 16/16/16 19/19/19
f 16/16/16 18/18/18 21/21/21
f 16/16/16 20/20/20 17/17/17
f 24/24/24 22/22/22 23/23/23
f 26/26/26 22/22/22 25/25/25
f 22/22/22 26/26/26 23/23/23
f 22/22/22 24/24/24 27/27/27
f 41/41/41 36/36/36 40/40/40
f 38/38/38 37/37/37 39/39/39
f 38/38/38 36/36/36 37/37/37
f 42/42/42 41/41/41 43/43/43
f 36/36/36 38/38/38 40/40/40
f 36/36/36 41/41/41 42/42/42
f 44/44/44 46/46/46 48/48/48
f 44/44/44 50/50/50 54/54/54
f 45/45/45 52/52/52 47/47/47
f 51/51/51 45/45/45 53/53/53
f 52/52/52 45/45/45 51/51/51
f 49/49/49 44/44/44 48/48/48
f 46/46/46 45/45/45 47/47/47
f 46/46/46 44/44/44 45/45/45
f 44/44/44 49/49/49 50/50/50
