# Wavefront .OBJ file for tesselated shape: Torso.step-1/Body.step-1/OLED Display (64x48).step-1/OLED Display (64x48)-4.step-1 path: C:\Users\matta\AppData\Local\Temp\swx18596\IC~~\OLED Display (64x48)-4.step.SLDPRT

g body_1
v 0.004200 -0.008100 0.002800
v 0.004200 -0.008100 0.002600
v -0.004200 -0.008100 0.002600
v -0.004200 -0.008100 0.002800
v -0.004200 -0.011701 0.002600
v -0.004200 -0.008100 0.002600
v 0.004200 -0.008100 0.002600
v 0.004200 -0.011701 0.002600
v 0.004200 -0.011701 0.002800
v 0.004200 -0.008100 0.002800
v -0.004200 -0.008100 0.002800
v -0.004200 -0.011701 0.002800
v -0.004200 -0.013187 0.001499
v -0.004200 -0.013083 0.001882
v -0.004200 -0.012947 0.001669
v -0.004200 -0.013001 0.001300
v -0.004200 -0.013187 0.001101
v -0.004200 -0.012881 0.002225
v -0.004200 -0.012791 0.002008
v -0.004200 -0.012597 0.002503
v -0.004200 -0.012545 0.002289
v -0.004200 -0.012249 0.002696
v -0.004200 -0.012229 0.002488
v -0.004200 -0.011701 0.002600
v -0.004200 -0.011870 0.002589
v -0.004200 -0.011863 0.002791
v -0.004200 -0.008100 0.002600
v -0.004200 -0.011701 0.002800
v -0.004200 -0.012597 0.000097
v -0.004200 -0.012545 0.000311
v -0.004200 -0.012428 0.000223
v -0.004200 -0.012881 0.000375
v -0.004200 -0.012791 0.000592
v -0.004200 -0.013083 0.000718
v -0.004200 -0.012947 0.000931
v -0.004200 -0.008100 0.002800
v -0.004200 -0.012428 -0.000012
v 0.004200 -0.013187 0.001499
v 0.004200 -0.013001 0.001300
v 0.004200 -0.012947 0.001669
v 0.004200 -0.008100 0.002800
v 0.004200 -0.011701 0.002800
v 0.004200 -0.011701 0.002600
v 0.004200 -0.011863 0.002791
v 0.004200 -0.012597 0.002503
v 0.004200 -0.012545 0.002289
v 0.004200 -0.012229 0.002488
v 0.004200 -0.012881 0.002225
v 0.004200 -0.012791 0.002008
v 0.004200 -0.013083 0.001882
v 0.004200 -0.011870 0.002589
v 0.004200 -0.012249 0.002696
v 0.004200 -0.013187 0.001101
v 0.004200 -0.013083 0.000718
v 0.004200 -0.012947 0.000931
v 0.004200 -0.012881 0.000375
v 0.004200 -0.012791 0.000592
v 0.004200 -0.012597 0.000097
v 0.004200 -0.012545 0.000311
v 0.004200 -0.012428 -0.000012
v 0.004200 -0.012428 0.000223
v 0.004200 -0.008100 0.002600
v -0.004437 -0.011782 0.000003
v -0.004353 -0.011896 0.000015
v 0.004371 -0.011869 0.000011
v 0.004428 -0.011792 0.000003
v 0.004514 -0.011701 0.000000
v -0.004514 -0.011701 0.000000
v 0.004276 -0.012046 0.000047
v 0.004343 -0.011913 0.000017
v 0.004237 -0.012161 0.000084
v -0.004239 -0.012153 0.000082
v -0.004220 -0.012229 0.000112
v 0.004220 -0.012229 0.000112
v -0.004286 -0.012022 0.000040
v -0.004318 -0.011957 0.000026
v 0.004200 -0.012545 0.000311
v 0.004200 -0.012428 0.000223
v -0.004200 -0.012428 0.000223
v -0.004209 -0.012293 0.000143
v -0.004200 -0.012545 0.000311
v 0.004209 -0.012295 0.000144
v 0.004200 -0.012791 0.000592
v 0.004200 -0.012947 0.000931
v -0.004200 -0.012791 0.000592
v 0.004200 -0.013001 0.001300
v -0.004200 -0.012947 0.000931
v 0.004200 -0.012947 0.001669
v -0.004200 -0.013001 0.001300
v 0.004200 -0.012791 0.002008
v -0.004200 -0.012947 0.001669
v 0.004200 -0.012545 0.002289
v -0.004200 -0.012791 0.002008
v 0.004200 -0.012229 0.002488
v -0.004200 -0.012545 0.002289
v 0.004200 -0.011870 0.002589
v -0.004200 -0.012229 0.002488
v 0.004200 -0.011701 0.002600
v -0.004200 -0.011870 0.002589
v -0.004200 -0.011701 0.002600
v 0.004408 -0.011818 -0.000195
v -0.004411 -0.011814 -0.000196
v -0.004480 -0.011734 -0.000200
v 0.004323 -0.011948 -0.000180
v -0.004326 -0.011942 -0.000180
v -0.004514 -0.011701 -0.000200
v 0.004514 -0.011701 -0.000200
v 0.004222 -0.012218 -0.000108
v 0.004216 -0.012249 -0.000096
v -0.004216 -0.012249 -0.000096
v -0.004223 -0.012216 -0.000108
v 0.004262 -0.012082 -0.000151
v -0.004264 -0.012077 -0.000152
v 0.004200 -0.012597 0.000097
v -0.004200 -0.012597 0.000097
v -0.004200 -0.012428 -0.000012
v 0.004202 -0.012360 -0.000047
v 0.004200 -0.012428 -0.000012
v -0.004202 -0.012358 -0.000048
v 0.004200 -0.012881 0.000375
v -0.004200 -0.012881 0.000375
v 0.004200 -0.013083 0.000718
v -0.004200 -0.013083 0.000718
v 0.004200 -0.013187 0.001101
v -0.004200 -0.013187 0.001101
v 0.004200 -0.013187 0.001499
v -0.004200 -0.013187 0.001499
v 0.004200 -0.013083 0.001882
v -0.004200 -0.013083 0.001882
v 0.004200 -0.012881 0.002225
v -0.004200 -0.012881 0.002225
v 0.004200 -0.012597 0.002503
v -0.004200 -0.012597 0.002503
v 0.004200 -0.012249 0.002696
v -0.004200 -0.012249 0.002696
v 0.004200 -0.011863 0.002791
v -0.004200 -0.011863 0.002791
v 0.004200 -0.011701 0.002800
v -0.004200 -0.011701 0.002800
v 0.004892 -0.011477 0.000000
v 0.004697 -0.011564 0.000000
v 0.004697 -0.011564 -0.000200
v 0.004209 -0.012295 0.000144
v 0.004200 -0.012428 0.000223
v 0.004200 -0.012428 -0.000012
v 0.004216 -0.012249 -0.000096
v 0.004237 -0.012161 0.000084
v 0.004220 -0.012229 0.000112
v 0.004202 -0.012360 -0.000047
v 0.004222 -0.012218 -0.000108
v 0.004262 -0.012082 -0.000151
v 0.004276 -0.012046 0.000047
v 0.004323 -0.011948 -0.000180
v 0.004343 -0.011913 0.000017
v 0.004408 -0.011818 -0.000195
v 0.004428 -0.011792 0.000003
v 0.004371 -0.011869 0.000011
v 0.004514 -0.011701 -0.000200
v 0.004514 -0.011701 0.000000
v 0.004892 -0.011477 -0.000200
v -0.004202 -0.012358 -0.000048
v -0.004209 -0.012293 0.000143
v -0.004220 -0.012229 0.000112
v -0.004223 -0.012216 -0.000108
v -0.004216 -0.012249 -0.000096
v -0.004200 -0.012428 -0.000012
v -0.004200 -0.012428 0.000223
v -0.004264 -0.012077 -0.000152
v -0.004286 -0.012022 0.000040
v -0.004318 -0.011957 0.000026
v -0.004239 -0.012153 0.000082
v -0.004437 -0.011782 0.000003
v -0.004514 -0.011701 0.000000
v -0.004480 -0.011734 -0.000200
v -0.004411 -0.011814 -0.000196
v -0.004326 -0.011942 -0.000180
v -0.004353 -0.011896 0.000015
v -0.004697 -0.011564 -0.000200
v -0.004514 -0.011701 -0.000200
v -0.004697 -0.011564 0.000000
v -0.004892 -0.011477 -0.000200
v -0.004892 -0.011477 0.000000
v 0.011000 -0.009500 0.000000
v 0.004892 -0.011477 0.000000
v 0.004892 -0.011477 -0.000200
v 0.011000 -0.009500 -0.000200
v 0.011000 -0.009500 0.000000
v 0.011000 -0.009500 -0.000200
v 0.011000 -0.005500 -0.000200
v 0.011000 -0.005500 0.000000
v 0.004697 -0.011564 0.000000
v -0.011000 -0.005500 0.000000
v -0.004892 -0.011477 0.000000
v 0.011000 -0.005500 0.000000
v 0.004892 -0.011477 0.000000
v -0.004697 -0.011564 0.000000
v -0.004514 -0.011701 0.000000
v -0.011000 -0.009500 0.000000
v 0.004514 -0.011701 0.000000
v 0.011000 -0.009500 0.000000
v -0.004697 -0.011564 -0.000200
v 0.011000 -0.005500 -0.000200
v 0.004892 -0.011477 -0.000200
v -0.011000 -0.005500 -0.000200
v -0.004892 -0.011477 -0.000200
v 0.004697 -0.011564 -0.000200
v 0.004514 -0.011701 -0.000200
v 0.011000 -0.009500 -0.000200
v -0.004514 -0.011701 -0.000200
v -0.011000 -0.009500 -0.000200
v 0.011000 -0.005500 0.000000
v 0.011000 -0.005500 -0.000200
v -0.011000 -0.005500 -0.000200
v -0.011000 -0.005500 0.000000
v -0.011000 -0.005500 0.000000
v -0.011000 -0.005500 -0.000200
v -0.011000 -0.009500 -0.000200
v -0.011000 -0.009500 0.000000
v -0.011000 -0.009500 -0.000200
v -0.004892 -0.011477 -0.000200
v -0.004892 -0.011477 0.000000
v -0.011000 -0.009500 0.000000
vn 0.000 1.000 0.000
vn 0.000 1.000 0.000
vn 0.000 1.000 0.000
vn 0.000 1.000 0.000
vn 0.000 0.000 -1.000
vn 0.000 0.000 -1.000
vn 0.000 0.000 -1.000
vn 0.000 0.000 -1.000
vn 0.000 0.000 1.000
vn 0.000 0.000 1.000
vn 0.000 0.000 1.000
vn 0.000 0.000 1.000
vn -1.000 0.000 0.000
vn -1.000 0.000 0.000
vn -1.000 0.000 0.000
vn -1.000 0.000 0.000
vn -1.000 0.000 0.000
vn -1.000 0.000 0.000
vn -1.000 0.000 0.000
vn -1.000 0.000 0.000
vn -1.000 0.000 0.000
vn -1.000 0.000 0.000
vn -1.000 0.000 0.000
vn -1.000 0.000 0.000
vn -1.000 0.000 0.000
vn -1.000 0.000 0.000
vn -1.000 0.000 0.000
vn -1.000 0.000 0.000
vn -1.000 0.000 0.000
vn -1.000 0.000 0.000
vn -1.000 0.000 0.000
vn -1.000 0.000 0.000
vn -1.000 0.000 0.000
vn -1.000 0.000 0.000
vn -1.000 0.000 0.000
vn -1.000 0.000 0.000
vn -1.000 0.000 0.000
vn 1.000 0.000 0.000
vn 1.000 0.000 0.000
vn 1.000 0.000 0.000
vn 1.000 0.000 0.000
vn 1.000 0.000 0.000
vn 1.000 0.000 0.000
vn 1.000 0.000 0.000
vn 1.000 0.000 0.000
vn 1.000 0.000 0.000
vn 1.000 0.000 0.000
vn 1.000 0.000 0.000
vn 1.000 0.000 0.000
vn 1.000 0.000 0.000
vn 1.000 0.000 0.000
vn 1.000 0.000 0.000
vn 1.000 0.000 0.000
vn 1.000 0.000 0.000
vn 1.000 0.000 0.000
vn 1.000 0.000 0.000
vn 1.000 0.000 0.000
vn 1.000 0.000 0.000
vn 1.000 0.000 0.000
vn 1.000 0.000 0.000
vn 1.000 0.000 0.000
vn 1.000 0.000 0.000
vn 0.000 0.063 0.998
vn 0.000 0.151 0.989
vn 0.000 0.129 0.992
vn 0.000 0.071 0.998
vn 0.000 0.000 1.000
vn 0.000 0.000 1.000
vn 0.000 0.266 0.964
vn 0.000 0.163 0.987
vn 0.000 0.354 0.935
vn 0.000 0.348 0.937
vn 0.000 0.406 0.914
vn 0.000 0.406 0.914
vn 0.000 0.247 0.969
vn 0.000 0.197 0.980
vn 0.000 0.649 0.760
vn 0.000 0.560 0.829
vn 0.000 0.560 0.829
vn 0.000 0.456 0.890
vn 0.000 0.649 0.760
vn 0.000 0.457 0.889
vn 0.000 0.839 0.545
vn 0.000 0.959 0.284
vn 0.000 0.839 0.545
vn 0.000 1.000 0.000
vn 0.000 0.959 0.284
vn 0.000 0.959 -0.284
vn 0.000 1.000 0.000
vn 0.000 0.839 -0.545
vn 0.000 0.959 -0.284
vn 0.000 0.649 -0.760
vn 0.000 0.839 -0.545
vn 0.000 0.407 -0.914
vn 0.000 0.649 -0.760
vn 0.000 0.131 -0.991
vn 0.000 0.407 -0.914
vn 0.000 0.000 -1.000
vn 0.000 0.131 -0.991
vn 0.000 0.000 -1.000
vn 0.000 -0.078 -0.997
vn 0.000 -0.075 -0.997
vn 0.000 -0.022 -1.000
vn 0.000 -0.165 -0.986
vn 0.000 -0.161 -0.987
vn 0.000 0.000 -1.000
vn 0.000 0.000 -1.000
vn 0.000 -0.345 -0.939
vn 0.000 -0.366 -0.931
vn 0.000 -0.366 -0.931
vn 0.000 -0.344 -0.939
vn 0.000 -0.254 -0.967
vn 0.000 -0.251 -0.968
vn 0.000 -0.598 -0.802
vn 0.000 -0.598 -0.802
vn 0.000 -0.485 -0.875
vn 0.000 -0.439 -0.898
vn 0.000 -0.485 -0.875
vn 0.000 -0.438 -0.899
vn 0.000 -0.787 -0.617
vn 0.000 -0.787 -0.617
vn 0.000 -0.922 -0.388
vn 0.000 -0.922 -0.388
vn 0.000 -0.991 -0.133
vn 0.000 -0.991 -0.133
vn 0.000 -0.991 0.133
vn 0.000 -0.991 0.133
vn 0.000 -0.922 0.388
vn 0.000 -0.922 0.388
vn 0.000 -0.787 0.617
vn 0.000 -0.787 0.617
vn 0.000 -0.598 0.802
vn 0.000 -0.598 0.802
vn 0.000 -0.366 0.931
vn 0.000 -0.366 0.931
vn 0.000 -0.109 0.994
vn 0.000 -0.109 0.994
vn 0.000 0.000 1.000
vn 0.000 0.000 1.000
vn 0.308 -0.951 0.000
vn 0.503 -0.864 0.000
vn 0.503 -0.864 0.000
vn 0.991 -0.133 0.000
vn 1.000 0.000 0.000
vn 1.000 0.000 0.000
vn 0.984 -0.179 0.000
vn 0.964 -0.267 0.000
vn 0.980 -0.199 0.000
vn 0.998 -0.068 0.000
vn 0.978 -0.210 0.000
vn 0.938 -0.346 0.000
vn 0.924 -0.382 0.000
vn 0.877 -0.480 0.000
vn 0.857 -0.515 0.000
vn 0.792 -0.610 0.000
vn 0.772 -0.636 0.000
vn 0.829 -0.559 0.000
vn 0.686 -0.727 0.000
vn 0.686 -0.727 0.000
vn 0.308 -0.951 0.000
vn -0.998 -0.070 0.000
vn -0.991 -0.135 0.000
vn -0.980 -0.199 0.000
vn -0.977 -0.212 0.000
vn -0.984 -0.179 0.000
vn -1.000 0.000 0.000
vn -1.000 0.000 0.000
vn -0.936 -0.351 0.000
vn -0.914 -0.407 0.000
vn -0.882 -0.471 0.000
vn -0.961 -0.275 0.000
vn -0.763 -0.646 0.000
vn -0.686 -0.727 0.000
vn -0.720 -0.694 0.000
vn -0.789 -0.614 0.000
vn -0.874 -0.486 0.000
vn -0.847 -0.532 0.000
vn -0.503 -0.864 0.000
vn -0.686 -0.727 0.000
vn -0.503 -0.864 0.000
vn -0.308 -0.951 0.000
vn -0.308 -0.951 0.000
vn 0.308 -0.951 0.000
vn 0.308 -0.951 0.000
vn 0.308 -0.951 0.000
vn 0.308 -0.951 0.000
vn 1.000 0.000 0.000
vn 1.000 0.000 0.000
vn 1.000 0.000 0.000
vn 1.000 0.000 0.000
vn 0.000 0.000 1.000
vn 0.000 0.000 1.000
vn 0.000 0.000 1.000
vn 0.000 0.000 1.000
vn 0.000 0.000 1.000
vn 0.000 0.000 1.000
vn 0.000 0.000 1.000
vn 0.000 0.000 1.000
vn 0.000 0.000 1.000
vn 0.000 0.000 1.000
vn 0.000 0.000 -1.000
vn 0.000 0.000 -1.000
vn 0.000 0.000 -1.000
vn 0.000 0.000 -1.000
vn 0.000 0.000 -1.000
vn 0.000 0.000 -1.000
vn 0.000 0.000 -1.000
vn 0.000 0.000 -1.000
vn 0.000 0.000 -1.000
vn 0.000 0.000 -1.000
vn 0.000 1.000 0.000
vn 0.000 1.000 0.000
vn 0.000 1.000 0.000
vn 0.000 1.000 0.000
vn -1.000 0.000 0.000
vn -1.000 0.000 0.000
vn -1.000 0.000 0.000
vn -1.000 0.000 0.000
vn -0.308 -0.951 0.000
vn -0.308 -0.951 0.000
vn -0.308 -0.951 0.000
vn -0.308 -0.951 0.000
vt -0.0001 0.0042 0
vt 0.0001 0.0042 0
vt 0.0001 -0.0042 0
vt -0.0001 -0.0042 0
vt 0.0036 0.0000 0
vt 0.0000 0.0000 0
vt 0.0000 -0.0084 0
vt 0.0036 -0.0084 0
vt 0.0000 -0.0036 0
vt 0.0000 0.0000 0
vt -0.0084 0.0000 0
vt -0.0084 -0.0036 0
vt -0.0013 -0.0051 0
vt -0.0009 -0.0050 0
vt -0.0011 -0.0048 0
vt -0.0015 -0.0049 0
vt -0.0017 -0.0051 0
vt -0.0006 -0.0048 0
vt -0.0008 -0.0047 0
vt -0.0003 -0.0045 0
vt -0.0005 -0.0044 0
vt -0.0001 -0.0041 0
vt -0.0003 -0.0041 0
vt -0.0002 -0.0036 0
vt -0.0002 -0.0038 0
vt 0.0000 -0.0038 0
vt -0.0002 0.0000 0
vt 0.0000 -0.0036 0
vt -0.0027 -0.0045 0
vt -0.0025 -0.0044 0
vt -0.0026 -0.0043 0
vt -0.0024 -0.0048 0
vt -0.0022 -0.0047 0
vt -0.0021 -0.0050 0
vt -0.0019 -0.0048 0
vt 0.0000 0.0000 0
vt -0.0028 -0.0043 0
vt -0.0051 -0.0011 0
vt -0.0049 -0.0013 0
vt -0.0048 -0.0009 0
vt 0.0000 0.0002 0
vt -0.0036 0.0002 0
vt -0.0036 0.0000 0
vt -0.0038 0.0002 0
vt -0.0045 -0.0001 0
vt -0.0044 -0.0003 0
vt -0.0041 -0.0001 0
vt -0.0048 -0.0004 0
vt -0.0047 -0.0006 0
vt -0.0050 -0.0007 0
vt -0.0038 0.0000 0
vt -0.0041 0.0001 0
vt -0.0051 -0.0015 0
vt -0.0050 -0.0019 0
vt -0.0048 -0.0017 0
vt -0.0048 -0.0022 0
vt -0.0047 -0.0020 0
vt -0.0045 -0.0025 0
vt -0.0044 -0.0023 0
vt -0.0043 -0.0026 0
vt -0.0043 -0.0024 0
vt 0.0000 0.0000 0
vt 3.0790 -0.0044 0
vt 2.9905 -0.0044 0
vt 3.0119 0.0044 0
vt 3.0710 0.0044 0
vt 3.1416 0.0045 0
vt 3.1416 -0.0045 0
vt 2.8723 0.0043 0
vt 2.9779 0.0043 0
vt 2.7796 0.0042 0
vt 2.7860 -0.0042 0
vt 2.7231 -0.0042 0
vt 2.7231 0.0042 0
vt 2.8921 -0.0043 0
vt 2.9429 -0.0043 0
vt 2.4347 0.0042 0
vt 2.5477 0.0042 0
vt 2.5477 -0.0042 0
vt 2.6684 -0.0042 0
vt 2.4347 -0.0042 0
vt 2.6670 0.0042 0
vt 2.1468 0.0042 0
vt 1.8588 0.0042 0
vt 2.1468 -0.0042 0
vt 1.5708 0.0042 0
vt 1.8588 -0.0042 0
vt 1.2828 0.0042 0
vt 1.5708 -0.0042 0
vt 0.9948 0.0042 0
vt 1.2828 -0.0042 0
vt 0.7069 0.0042 0
vt 0.9948 -0.0042 0
vt 0.4189 0.0042 0
vt 0.7069 -0.0042 0
vt 0.1309 0.0042 0
vt 0.4189 -0.0042 0
vt 0.0000 0.0042 0
vt 0.1309 -0.0042 0
vt 0.0000 -0.0042 0
vt 3.0635 0.0044 0
vt 3.0660 -0.0044 0
vt 3.1194 -0.0045 0
vt 2.9762 0.0043 0
vt 2.9798 -0.0043 0
vt 3.1416 -0.0045 0
vt 3.1416 0.0045 0
vt 2.7893 0.0042 0
vt 2.7672 0.0042 0
vt 2.7672 -0.0042 0
vt 2.7907 -0.0042 0
vt 2.8843 0.0043 0
vt 2.8882 -0.0043 0
vt 2.5012 0.0042 0
vt 2.5012 -0.0042 0
vt 2.6353 -0.0042 0
vt 2.6866 0.0042 0
vt 2.6353 0.0042 0
vt 2.6882 -0.0042 0
vt 2.2354 0.0042 0
vt 2.2354 -0.0042 0
vt 1.9695 0.0042 0
vt 1.9695 -0.0042 0
vt 1.7037 0.0042 0
vt 1.7037 -0.0042 0
vt 1.4379 0.0042 0
vt 1.4379 -0.0042 0
vt 1.1721 0.0042 0
vt 1.1721 -0.0042 0
vt 0.9062 0.0042 0
vt 0.9062 -0.0042 0
vt 0.6404 0.0042 0
vt 0.6404 -0.0042 0
vt 0.3746 0.0042 0
vt 0.3746 -0.0042 0
vt 0.1087 0.0042 0
vt 0.1087 -0.0042 0
vt 0.0000 0.0042 0
vt 0.0000 -0.0042 0
vt 5.6543 -0.0012 0
vt 5.8681 -0.0012 0
vt 5.8681 -0.0014 0
vt 0.4951 -0.0011 0
vt 0.6289 -0.0010 0
vt 0.6289 -0.0012 0
vt 0.4491 -0.0013 0
vt 0.3585 -0.0011 0
vt 0.4284 -0.0011 0
vt 0.5606 -0.0012 0
vt 0.4175 -0.0013 0
vt 0.2758 -0.0014 0
vt 0.2373 -0.0012 0
vt 0.1278 -0.0014 0
vt 0.0874 -0.0012 0
vt 6.2555 -0.0014 0
vt 6.2233 -0.0012 0
vt 0.0356 -0.0012 0
vt 6.0975 -0.0014 0
vt 6.0975 -0.0012 0
vt 5.6543 -0.0014 0
vt 0.5584 0.0013 0
vt 0.4935 0.0012 0
vt 0.4283 0.0012 0
vt 0.4154 0.0014 0
vt 0.4490 0.0014 0
vt 0.6289 0.0013 0
vt 0.6289 0.0011 0
vt 0.2699 0.0015 0
vt 0.2103 0.0013 0
vt 0.1387 0.0013 0
vt 0.3504 0.0012 0
vt 6.2097 0.0013 0
vt 6.0975 0.0013 0
vt 6.1449 0.0015 0
vt 6.2507 0.0015 0
vt 0.1216 0.0015 0
vt 0.0682 0.0013 0
vt 5.8681 0.0015 0
vt 6.0975 0.0015 0
vt 5.8681 0.0013 0
vt 5.6543 0.0015 0
vt 5.6543 0.0013 0
vt -0.0002 0.0071 0
vt -0.0002 0.0007 0
vt 0.0000 0.0007 0
vt 0.0000 0.0071 0
vt 0.0000 0.0002 0
vt 0.0000 0.0000 0
vt 0.0040 0.0000 0
vt 0.0040 0.0002 0
vt 0.0089 0.0001 0
vt -0.0068 0.0062 0
vt -0.0007 0.0002 0
vt 0.0152 0.0062 0
vt 0.0091 0.0002 0
vt -0.0005 0.0001 0
vt -0.0003 0.0000 0
vt -0.0068 0.0022 0
vt 0.0087 0.0000 0
vt 0.0152 0.0022 0
vt -0.0001 0.0089 0
vt -0.0062 -0.0068 0
vt -0.0002 -0.0007 0
vt -0.0062 0.0152 0
vt -0.0002 0.0091 0
vt -0.0001 -0.0005 0
vt 0.0000 -0.0003 0
vt -0.0022 -0.0068 0
vt 0.0000 0.0087 0
vt -0.0022 0.0152 0
vt 0.0000 -0.0002 0
vt 0.0000 0.0000 0
vt -0.0220 0.0000 0
vt -0.0220 -0.0002 0
vt 0.0002 0.0000 0
vt 0.0000 0.0000 0
vt 0.0000 -0.0040 0
vt 0.0002 -0.0040 0
vt 0.0000 0.0000 0
vt -0.0064 0.0000 0
vt -0.0064 -0.0002 0
vt 0.0000 -0.0002 0
f 1/1/1 3/3/3 4/4/4
f 3/3/3 1/1/1 2/2/2
f 5/5/5 7/7/7 8/8/8
f 7/7/7 5/5/5 6/6/6
f 11/11/11 9/9/9 10/10/10
f 9/9/9 11/11/11 12/12/12
f 63/63/63 66/66/66 67/67/67
f 64/64/64 70/70/70 65/65/65
f 80/80/80 82/82/82 74/74/74
f 83/83/83 81/81/81 85/85/85
f 84/84/84 85/85/85 87/87/87
f 86/86/86 87/87/87 89/89/89
f 88/88/88 89/89/89 91/91/91
f 90/90/90 91/91/91 93/93/93
f 92/92/92 93/93/93 95/95/95
f 94/94/94 95/95/95 97/97/97
f 96/96/96 97/97/97 99/99/99
f 98/98/98 99/99/99 100/100/100
f 63/63/63 65/65/65 66/66/66
f 63/63/63 67/67/67 68/68/68
f 70/70/70 64/64/64 69/69/69
f 73/73/73 71/71/71 72/72/72
f 71/71/71 73/73/73 74/74/74
f 72/72/72 69/69/69 75/75/75
f 76/76/76 69/69/69 64/64/64
f 69/69/69 76/76/76 75/75/75
f 72/72/72 71/71/71 69/69/69
f 79/79/79 77/77/77 78/78/78
f 79/79/79 78/78/78 80/80/80
f 77/77/77 79/79/79 81/81/81
f 80/80/80 78/78/78 82/82/82
f 80/80/80 74/74/74 73/73/73
f 81/81/81 83/83/83 77/77/77
f 85/85/85 84/84/84 83/83/83
f 65/65/65 63/63/63 64/64/64
f 87/87/87 86/86/86 84/84/84
f 89/89/89 88/88/88 86/86/86
f 91/91/91 90/90/90 88/88/88
f 99/99/99 98/98/98 96/96/96
f 97/97/97 96/96/96 94/94/94
f 95/95/95 94/94/94 92/92/92
f 93/93/93 92/92/92 90/90/90
f 112/112/112 113/113/113 104/104/104
f 105/105/105 101/101/101 104/104/104
f 101/101/101 105/105/105 102/102/102
f 101/101/101 106/106/106 107/107/107
f 110/110/110 108/108/108 109/109/109
f 108/108/108 111/111/111 112/112/112
f 101/101/101 103/103/103 106/106/106
f 104/104/104 113/113/113 105/105/105
f 109/109/109 119/119/119 110/110/110
f 120/120/120 115/115/115 114/114/114
f 122/122/122 121/121/121 120/120/120
f 124/124/124 123/123/123 122/122/122
f 126/126/126 125/125/125 124/124/124
f 128/128/128 127/127/127 126/126/126
f 130/130/130 129/129/129 128/128/128
f 132/132/132 131/131/131 130/130/130
f 134/134/134 133/133/133 132/132/132
f 136/136/136 135/135/135 134/134/134
f 138/138/138 137/137/137 136/136/136
f 137/137/137 138/138/138 139/139/139
f 135/135/135 136/136/136 137/137/137
f 133/133/133 134/134/134 135/135/135
f 131/131/131 132/132/132 133/133/133
f 129/129/129 130/130/130 131/131/131
f 127/127/127 128/128/128 129/129/129
f 125/125/125 126/126/126 127/127/127
f 123/123/123 124/124/124 125/125/125
f 121/121/121 122/122/122 123/123/123
f 115/115/115 120/120/120 121/121/121
f 117/117/117 116/116/116 119/119/119
f 117/117/117 119/119/119 109/109/109
f 114/114/114 116/116/116 118/118/118
f 118/118/118 116/116/116 117/117/117
f 116/116/116 114/114/114 115/115/115
f 112/112/112 111/111/111 113/113/113
f 108/108/108 110/110/110 111/111/111
f 103/103/103 101/101/101 102/102/102
f 195/195/195 192/192/192 191/191/191
f 191/191/191 197/197/197 199/199/199
f 193/193/193 191/191/191 192/192/192
f 195/195/195 194/194/194 192/192/192
f 197/197/197 191/191/191 196/196/196
f 193/193/193 192/192/192 198/198/198
f 194/194/194 195/195/195 200/200/200
f 191/191/191 193/193/193 196/196/196
f 203/203/203 202/202/202 208/208/208
f 205/205/205 204/204/204 202/202/202
f 205/205/205 202/202/202 201/201/201
f 207/207/207 201/201/201 206/206/206
f 203/203/203 201/201/201 202/202/202
f 204/204/204 205/205/205 210/210/210
f 201/201/201 207/207/207 209/209/209
f 201/201/201 203/203/203 206/206/206
f 32/32/32 30/30/30 29/29/29
f 27/27/27 28/28/28 36/36/36
f 25/25/25 22/22/22 26/26/26
f 20/20/20 23/23/23 21/21/21
f 14/14/14 19/19/19 15/15/15
f 35/35/35 17/17/17 16/16/16
f 33/33/33 34/34/34 35/35/35
f 30/30/30 32/32/32 33/33/33
f 31/31/31 29/29/29 30/30/30
f 17/17/17 35/35/35 34/34/34
f 26/26/26 24/24/24 25/25/25
f 23/23/23 20/20/20 22/22/22
f 21/21/21 18/18/18 20/20/20
f 19/19/19 14/14/14 18/18/18
f 13/13/13 16/16/16 17/17/17
f 15/15/15 13/13/13 14/14/14
f 34/34/34 33/33/33 32/32/32
f 22/22/22 25/25/25 23/23/23
f 13/13/13 15/15/15 16/16/16
f 29/29/29 31/31/31 37/37/37
f 18/18/18 21/21/21 19/19/19
f 28/28/28 27/27/27 24/24/24
f 24/24/24 26/26/26 28/28/28
f 211/211/211 213/213/213 214/214/214
f 213/213/213 211/211/211 212/212/212
f 215/215/215 217/217/217 218/218/218
f 217/217/217 215/215/215 216/216/216
f 183/183/183 185/185/185 186/186/186
f 185/185/185 183/183/183 184/184/184
f 189/189/189 187/187/187 188/188/188
f 187/187/187 189/189/189 190/190/190
f 41/41/41 43/43/43 62/62/62
f 53/53/53 55/55/55 39/39/39
f 56/56/56 59/59/59 57/57/57
f 45/45/45 47/47/47 52/52/52
f 58/58/58 61/61/61 59/59/59
f 54/54/54 57/57/57 55/55/55
f 50/50/50 49/49/49 48/48/48
f 40/40/40 38/38/38 39/39/39
f 43/43/43 41/41/41 42/42/42
f 52/52/52 51/51/51 44/44/44
f 61/61/61 58/58/58 60/60/60
f 44/44/44 43/43/43 42/42/42
f 47/47/47 45/45/45 46/46/46
f 46/46/46 48/48/48 49/49/49
f 49/49/49 50/50/50 40/40/40
f 38/38/38 40/40/40 50/50/50
f 43/43/43 44/44/44 51/51/51
f 51/51/51 52/52/52 47/47/47
f 48/48/48 46/46/46 45/45/45
f 39/39/39 38/38/38 53/53/53
f 55/55/55 53/53/53 54/54/54
f 57/57/57 54/54/54 56/56/56
f 59/59/59 56/56/56 58/58/58
f 153/153/153 152/152/152 151/151/151
f 152/152/152 153/153/153 154/154/154
f 157/157/157 155/155/155 156/156/156
f 155/155/155 157/157/157 153/153/153
f 156/156/156 158/158/158 159/159/159
f 158/158/158 156/156/156 155/155/155
f 158/158/158 141/141/141 159/159/159
f 141/141/141 158/158/158 142/142/142
f 153/153/153 157/157/157 154/154/154
f 150/150/150 152/152/152 147/147/147
f 143/143/143 145/145/145 149/149/149
f 140/140/140 142/142/142 160/160/160
f 147/147/147 146/146/146 150/150/150
f 149/149/149 148/148/148 143/143/143
f 146/146/146 148/148/148 149/149/149
f 148/148/148 146/146/146 147/147/147
f 145/145/145 143/143/143 144/144/144
f 142/142/142 140/140/140 141/141/141
f 152/152/152 150/150/150 151/151/151
f 219/219/219 221/221/221 222/222/222
f 221/221/221 219/219/219 220/220/220
f 161/161/161 163/163/163 165/165/165
f 168/168/168 170/170/170 176/176/176
f 172/172/172 174/174/174 175/175/175
f 181/181/181 180/180/180 182/182/182
f 180/180/180 181/181/181 178/178/178
f 178/178/178 173/173/173 180/180/180
f 173/173/173 178/178/178 179/179/179
f 177/177/177 176/176/176 170/170/170
f 175/175/175 177/177/177 172/172/172
f 177/177/177 175/175/175 176/176/176
f 174/174/174 172/172/172 173/173/173
f 171/171/171 164/164/164 163/163/163
f 168/168/168 171/171/171 169/169/169
f 171/171/171 168/168/168 164/164/164
f 170/170/170 168/168/168 169/169/169
f 162/162/162 166/166/166 167/167/167
f 166/166/166 162/162/162 161/161/161
f 165/165/165 163/163/163 164/164/164
f 163/163/163 161/161/161 162/162/162
f 173/173/173 179/179/179 174/174/174
