# Wavefront .OBJ file for tesselated shape: Torso.step-1/Body.step-1/Raspberry Pi Zero 2 W.step-1/LED, Raspberry Pi Zero 2 W.step-1 path: C:\Users\matta\AppData\Local\Temp\swx18596\IC~~\LED, Raspberry Pi Zero 2 W.step.SLDPRT

g body_1
v -0.000600 -0.008200 -0.007000
v 0.000600 -0.008200 -0.007000
v 0.000600 -0.009000 -0.007000
v -0.000600 -0.009000 -0.007000
v -0.000600 -0.009000 -0.006600
v -0.000600 -0.009000 -0.007000
v 0.000600 -0.009000 -0.007000
v 0.000600 -0.009000 -0.006600
v -0.000600 -0.009000 -0.006600
v 0.000600 -0.009000 -0.006600
v 0.000600 -0.008200 -0.006600
v -0.000600 -0.008200 -0.006600
v -0.000600 -0.008200 -0.006600
v -0.000600 -0.008200 -0.007000
v -0.000600 -0.009000 -0.007000
v -0.000600 -0.009000 -0.006600
v 0.000600 -0.008200 -0.006600
v 0.000600 -0.008200 -0.007000
v -0.000600 -0.008200 -0.007000
v -0.000600 -0.008200 -0.006600
v 0.000600 -0.009000 -0.006600
v 0.000600 -0.009000 -0.007000
v 0.000600 -0.008200 -0.007000
v 0.000600 -0.008200 -0.006600
vn 0.000 0.000 -1.000
vn 0.000 0.000 -1.000
vn 0.000 0.000 -1.000
vn 0.000 0.000 -1.000
vn 0.000 -1.000 0.000
vn 0.000 -1.000 0.000
vn 0.000 -1.000 0.000
vn 0.000 -1.000 0.000
vn 0.000 0.000 1.000
vn 0.000 0.000 1.000
vn 0.000 0.000 1.000
vn 0.000 0.000 1.000
vn -1.000 0.000 0.000
vn -1.000 0.000 0.000
vn -1.000 0.000 0.000
vn -1.000 0.000 0.000
vn 0.000 1.000 0.000
vn 0.000 1.000 0.000
vn 0.000 1.000 0.000
vn 0.000 1.000 0.000
vn 1.000 0.000 0.000
vn 1.000 0.000 0.000
vn 1.000 0.000 0.000
vn 1.000 0.000 0.000
vt -0.0004 -0.0006 0
vt -0.0004 0.0006 0
vt 0.0004 0.0006 0
vt 0.0004 -0.0006 0
vt 0.0000 0.0000 0
vt 0.0004 0.0000 0
vt 0.0004 -0.0012 0
vt 0.0000 -0.0012 0
vt 0.0004 -0.0006 0
vt 0.0004 0.0006 0
vt -0.0004 0.0006 0
vt -0.0004 -0.0006 0
vt 0.0000 0.0000 0
vt 0.0000 -0.0004 0
vt -0.0008 -0.0004 0
vt -0.0008 0.0000 0
vt 0.0000 0.0012 0
vt 0.0004 0.0012 0
vt 0.0004 0.0000 0
vt 0.0000 0.0000 0
vt -0.0008 0.0000 0
vt -0.0008 0.0004 0
vt 0.0000 0.0004 0
vt 0.0000 0.0000 0
f 1/1/1 3/3/3 4/4/4
f 3/3/3 1/1/1 2/2/2
f 9/9/9 11/11/11 12/12/12
f 11/11/11 9/9/9 10/10/10
f 7/7/7 5/5/5 6/6/6
f 5/5/5 7/7/7 8/8/8
f 13/13/13 15/15/15 16/16/16
f 15/15/15 13/13/13 14/14/14
f 17/17/17 19/19/19 20/20/20
f 19/19/19 17/17/17 18/18/18
f 21/21/21 23/23/23 24/24/24
f 23/23/23 21/21/21 22/22/22
