# Wavefront .OBJ file for tesselated shape: Torso.step-1/LED_3.step-1/Cathode.step-1 path: C:\Users\matta\AppData\Local\Temp\swx18596\IC~~\Cathode.step.SLDPRT

g body_1
v -0.001020 -0.000250 0.011900
v -0.001261 -0.000315 0.011900
v -0.001237 -0.000375 0.011900
v -0.001197 -0.000427 0.011900
v -0.001145 -0.000467 0.011900
v -0.001085 -0.000491 0.011900
v -0.001020 -0.000500 0.011900
v -0.000955 -0.000491 0.011900
v -0.000895 -0.000467 0.011900
v -0.000843 -0.000427 0.011900
v -0.000803 -0.000375 0.011900
v -0.000779 -0.000315 0.011900
v -0.000770 -0.000250 0.011900
v -0.000779 -0.000185 0.011900
v -0.000803 -0.000125 0.011900
v -0.000843 -0.000073 0.011900
v -0.000895 -0.000033 0.011900
v -0.000955 -0.000009 0.011900
v -0.001020 0.000000 0.011900
v -0.001085 -0.000009 0.011900
v -0.001145 -0.000033 0.011900
v -0.001197 -0.000073 0.011900
v -0.001237 -0.000125 0.011900
v -0.001261 -0.000185 0.011900
v -0.001270 -0.000250 0.011900
v -0.000779 -0.000315 0.012000
v -0.000770 -0.000250 0.012000
v -0.000770 -0.000250 0.011900
v -0.000803 -0.000375 0.012000
v -0.000779 -0.000315 0.011900
v -0.000843 -0.000427 0.012000
v -0.000803 -0.000375 0.011900
v -0.000895 -0.000467 0.012000
v -0.000843 -0.000427 0.011900
v -0.000955 -0.000491 0.012000
v -0.000895 -0.000467 0.011900
v -0.001020 -0.000500 0.012000
v -0.000955 -0.000491 0.011900
v -0.001085 -0.000491 0.012000
v -0.001020 -0.000500 0.011900
v -0.001145 -0.000467 0.012000
v -0.001085 -0.000491 0.011900
v -0.001197 -0.000427 0.012000
v -0.001145 -0.000467 0.011900
v -0.001237 -0.000375 0.012000
v -0.001197 -0.000427 0.011900
v -0.001261 -0.000315 0.012000
v -0.001237 -0.000375 0.011900
v -0.001270 -0.000250 0.012000
v -0.001261 -0.000315 0.011900
v -0.001261 -0.000185 0.012000
v -0.001270 -0.000250 0.011900
v -0.001237 -0.000125 0.012000
v -0.001261 -0.000185 0.011900
v -0.001197 -0.000073 0.012000
v -0.001237 -0.000125 0.011900
v -0.001145 -0.000033 0.012000
v -0.001197 -0.000073 0.011900
v -0.001085 -0.000009 0.012000
v -0.001145 -0.000033 0.011900
v -0.001020 0.000000 0.012000
v -0.001085 -0.000009 0.011900
v -0.000955 -0.000009 0.012000
v -0.001020 0.000000 0.011900
v -0.000895 -0.000033 0.012000
v -0.000955 -0.000009 0.011900
v -0.000843 -0.000073 0.012000
v -0.000895 -0.000033 0.011900
v -0.000803 -0.000125 0.012000
v -0.000843 -0.000073 0.011900
v -0.000779 -0.000185 0.012000
v -0.000803 -0.000125 0.011900
v -0.000779 -0.000185 0.011900
v -0.002040 -0.000500 0.012000
v -0.001261 -0.000315 0.012000
v -0.001270 -0.000250 0.012000
v -0.001530 -0.000500 0.012000
v -0.001237 -0.000375 0.012000
v -0.001337 -0.000519 0.012000
v -0.001152 -0.000574 0.012000
v -0.001145 -0.000467 0.012000
v -0.001065 0.000097 0.012000
v -0.001152 0.000074 0.012000
v -0.001085 -0.000009 0.012000
v -0.001337 0.000019 0.012000
v -0.001197 -0.000073 0.012000
v -0.001145 -0.000033 0.012000
v -0.001261 -0.000185 0.012000
v -0.001237 -0.000125 0.012000
v -0.001530 0.000000 0.012000
v -0.001197 -0.000427 0.012000
v -0.000703 0.000019 0.012000
v -0.000888 0.000074 0.012000
v -0.000895 -0.000033 0.012000
v -0.000975 0.000097 0.012000
v -0.001020 0.000000 0.012000
v -0.000955 -0.000009 0.012000
v -0.002040 0.000000 0.012000
v -0.001065 -0.000597 0.012000
v -0.001020 -0.000500 0.012000
v -0.001085 -0.000491 0.012000
v -0.000703 -0.000519 0.012000
v -0.000843 -0.000427 0.012000
v -0.000895 -0.000467 0.012000
v -0.000779 -0.000185 0.012000
v 0.000000 0.000000 0.012000
v -0.000510 0.000000 0.012000
v -0.000803 -0.000125 0.012000
v -0.000888 -0.000574 0.012000
v -0.000803 -0.000375 0.012000
v -0.000779 -0.000315 0.012000
v -0.000510 -0.000500 0.012000
v -0.000770 -0.000250 0.012000
v -0.000843 -0.000073 0.012000
v -0.000975 -0.000597 0.012000
v -0.000955 -0.000491 0.012000
v 0.000000 -0.000500 0.012000
v -0.001337 0.000019 0.012000
v -0.001152 0.000074 0.012000
v -0.001152 0.000074 0.011800
v -0.001530 0.000000 0.012000
v -0.001337 0.000019 0.011800
v -0.001530 0.000000 0.011800
v -0.000703 0.000019 0.012000
v -0.000510 0.000000 0.012000
v -0.000510 0.000000 0.011800
v -0.000888 0.000074 0.012000
v -0.000703 0.000019 0.011800
v -0.000888 0.000074 0.011800
v -0.000888 0.000074 0.012000
v -0.000888 0.000074 0.011800
v -0.000975 0.000097 0.011800
v -0.000975 0.000097 0.012000
v -0.001065 0.000097 0.011800
v -0.001065 0.000097 0.012000
v -0.001152 0.000074 0.011800
v -0.001152 0.000074 0.012000
v -0.000888 0.000074 0.011800
v -0.001152 0.000074 0.011800
v -0.001065 0.000097 0.011800
v -0.000975 0.000097 0.011800
v -0.000703 0.000019 0.011800
v -0.001337 0.000019 0.011800
v -0.001530 0.000000 0.011800
v -0.000510 0.000000 0.011800
v -0.001337 -0.000519 0.012000
v -0.001530 -0.000500 0.012000
v -0.001530 -0.000500 0.011800
v -0.001152 -0.000574 0.012000
v -0.001337 -0.000519 0.011800
v -0.001152 -0.000574 0.011800
v -0.000703 -0.000519 0.012000
v -0.000888 -0.000574 0.012000
v -0.000888 -0.000574 0.011800
v -0.000510 -0.000500 0.012000
v -0.000703 -0.000519 0.011800
v -0.000510 -0.000500 0.011800
v -0.000888 -0.000574 0.011800
v -0.000975 -0.000597 0.011800
v -0.001065 -0.000597 0.011800
v -0.001152 -0.000574 0.011800
v -0.000703 -0.000519 0.011800
v -0.001337 -0.000519 0.011800
v -0.001530 -0.000500 0.011800
v -0.000510 -0.000500 0.011800
v -0.001152 -0.000574 0.012000
v -0.001152 -0.000574 0.011800
v -0.001065 -0.000597 0.011800
v -0.001065 -0.000597 0.012000
v -0.000975 -0.000597 0.011800
v -0.000975 -0.000597 0.012000
v -0.000888 -0.000574 0.011800
v -0.000888 -0.000574 0.012000
v 0.000000 -0.000500 0.000000
v 0.000000 0.000000 0.000000
v 0.000000 0.000000 0.012000
v 0.000000 -0.000500 0.012000
v -0.000500 -0.000500 0.000000
v -0.000500 0.000000 0.000000
v 0.000000 0.000000 0.000000
v 0.000000 -0.000500 0.000000
v -0.002040 -0.000500 0.012000
v -0.002040 0.000000 0.012000
v -0.002040 0.000000 0.011700
v -0.002040 -0.000500 0.011700
v -0.000510 0.000000 0.011800
v -0.000500 0.000000 0.011000
v -0.001340 0.000000 0.011000
v 0.000000 0.000000 0.012000
v -0.002040 0.000000 0.011700
v -0.001530 0.000000 0.011800
v -0.002040 0.000000 0.012000
v -0.001530 0.000000 0.012000
v 0.000000 0.000000 0.000000
v -0.000500 0.000000 0.000000
v -0.000510 0.000000 0.012000
v -0.000510 -0.000500 0.011800
v -0.001530 -0.000500 0.011800
v -0.001340 -0.000500 0.011000
v -0.000500 -0.000500 0.011000
v 0.000000 -0.000500 0.012000
v -0.000510 -0.000500 0.012000
v 0.000000 -0.000500 0.000000
v -0.002040 -0.000500 0.012000
v -0.002040 -0.000500 0.011700
v -0.000500 -0.000500 0.000000
v -0.001530 -0.000500 0.012000
v -0.002040 -0.000500 0.011700
v -0.002040 0.000000 0.011700
v -0.001340 0.000000 0.011000
v -0.001340 -0.000500 0.011000
v -0.001340 -0.000500 0.011000
v -0.001340 0.000000 0.011000
v -0.000500 0.000000 0.011000
v -0.000500 -0.000500 0.011000
v -0.000500 -0.000500 0.011000
v -0.000500 0.000000 0.011000
v -0.000500 0.000000 0.000000
v -0.000500 -0.000500 0.000000
vn 0.000 0.000 1.000
vn 0.000 0.000 1.000
vn 0.000 0.000 1.000
vn 0.000 0.000 1.000
vn 0.000 0.000 1.000
vn 0.000 0.000 1.000
vn 0.000 0.000 1.000
vn 0.000 0.000 1.000
vn 0.000 0.000 1.000
vn 0.000 0.000 1.000
vn 0.000 0.000 1.000
vn 0.000 0.000 1.000
vn 0.000 0.000 1.000
vn 0.000 0.000 1.000
vn 0.000 0.000 1.000
vn 0.000 0.000 1.000
vn 0.000 0.000 1.000
vn 0.000 0.000 1.000
vn 0.000 0.000 1.000
vn 0.000 0.000 1.000
vn 0.000 0.000 1.000
vn 0.000 0.000 1.000
vn 0.000 0.000 1.000
vn 0.000 0.000 1.000
vn 0.000 0.000 1.000
vn -0.966 0.259 0.000
vn -1.000 0.000 0.000
vn -1.000 0.000 0.000
vn -0.866 0.500 0.000
vn -0.966 0.259 0.000
vn -0.707 0.707 0.000
vn -0.866 0.500 0.000
vn -0.500 0.866 0.000
vn -0.707 0.707 0.000
vn -0.259 0.966 0.000
vn -0.500 0.866 0.000
vn 0.000 1.000 0.000
vn -0.259 0.966 0.000
vn 0.259 0.966 0.000
vn 0.000 1.000 0.000
vn 0.500 0.866 0.000
vn 0.259 0.966 0.000
vn 0.707 0.707 0.000
vn 0.500 0.866 0.000
vn 0.866 0.500 0.000
vn 0.707 0.707 0.000
vn 0.966 0.259 0.000
vn 0.866 0.500 0.000
vn 1.000 0.000 0.000
vn 0.966 0.259 0.000
vn 0.966 -0.259 0.000
vn 1.000 0.000 0.000
vn 0.866 -0.500 0.000
vn 0.966 -0.259 0.000
vn 0.707 -0.707 0.000
vn 0.866 -0.500 0.000
vn 0.500 -0.866 0.000
vn 0.707 -0.707 0.000
vn 0.259 -0.966 0.000
vn 0.500 -0.866 0.000
vn 0.000 -1.000 0.000
vn 0.259 -0.966 0.000
vn -0.259 -0.966 0.000
vn 0.000 -1.000 0.000
vn -0.500 -0.866 0.000
vn -0.259 -0.966 0.000
vn -0.707 -0.707 0.000
vn -0.500 -0.866 0.000
vn -0.866 -0.500 0.000
vn -0.707 -0.707 0.000
vn -0.966 -0.259 0.000
vn -0.866 -0.500 0.000
vn -0.966 -0.259 0.000
vn 0.000 0.000 1.000
vn 0.000 0.000 1.000
vn 0.000 0.000 1.000
vn 0.000 0.000 1.000
vn 0.000 0.000 1.000
vn 0.000 0.000 1.000
vn 0.000 0.000 1.000
vn 0.000 0.000 1.000
vn 0.000 0.000 1.000
vn 0.000 0.000 1.000
vn 0.000 0.000 1.000
vn 0.000 0.000 1.000
vn 0.000 0.000 1.000
vn 0.000 0.000 1.000
vn 0.000 0.000 1.000
vn 0.000 0.000 1.000
vn 0.000 0.000 1.000
vn 0.000 0.000 1.000
vn 0.000 0.000 1.000
vn 0.000 0.000 1.000
vn 0.000 0.000 1.000
vn 0.000 0.000 1.000
vn 0.000 0.000 1.000
vn 0.000 0.000 1.000
vn 0.000 0.000 1.000
vn 0.000 0.000 1.000
vn 0.000 0.000 1.000
vn 0.000 0.000 1.000
vn 0.000 0.000 1.000
vn 0.000 0.000 1.000
vn 0.000 0.000 1.000
vn 0.000 0.000 1.000
vn 0.000 0.000 1.000
vn 0.000 0.000 1.000
vn 0.000 0.000 1.000
vn 0.000 0.000 1.000
vn 0.000 0.000 1.000
vn 0.000 0.000 1.000
vn 0.000 0.000 1.000
vn 0.000 0.000 1.000
vn 0.000 0.000 1.000
vn 0.000 0.000 1.000
vn 0.000 0.000 1.000
vn 0.000 0.000 1.000
vn -0.192 0.981 0.000
vn -0.378 0.926 0.000
vn -0.378 0.926 0.000
vn 0.000 1.000 0.000
vn -0.192 0.981 0.000
vn 0.000 1.000 0.000
vn 0.192 0.981 0.000
vn 0.000 1.000 0.000
vn 0.000 1.000 0.000
vn 0.378 0.926 0.000
vn 0.192 0.981 0.000
vn 0.378 0.926 0.000
vn 0.378 0.926 0.000
vn 0.378 0.926 0.000
vn 0.129 0.992 0.000
vn 0.129 0.992 0.000
vn -0.129 0.992 0.000
vn -0.129 0.992 0.000
vn -0.378 0.926 0.000
vn -0.378 0.926 0.000
vn 0.000 0.000 -1.000
vn 0.000 0.000 -1.000
vn 0.000 0.000 -1.000
vn 0.000 0.000 -1.000
vn 0.000 0.000 -1.000
vn 0.000 0.000 -1.000
vn 0.000 0.000 -1.000
vn 0.000 0.000 -1.000
vn -0.192 -0.981 0.000
vn 0.000 -1.000 0.000
vn 0.000 -1.000 0.000
vn -0.378 -0.926 0.000
vn -0.192 -0.981 0.000
vn -0.378 -0.926 0.000
vn 0.192 -0.981 0.000
vn 0.378 -0.926 0.000
vn 0.378 -0.926 0.000
vn 0.000 -1.000 0.000
vn 0.192 -0.981 0.000
vn 0.000 -1.000 0.000
vn 0.000 0.000 -1.000
vn 0.000 0.000 -1.000
vn 0.000 0.000 -1.000
vn 0.000 0.000 -1.000
vn 0.000 0.000 -1.000
vn 0.000 0.000 -1.000
vn 0.000 0.000 -1.000
vn 0.000 0.000 -1.000
vn -0.378 -0.926 0.000
vn -0.378 -0.926 0.000
vn -0.129 -0.992 0.000
vn -0.129 -0.992 0.000
vn 0.129 -0.992 0.000
vn 0.129 -0.992 0.000
vn 0.378 -0.926 0.000
vn 0.378 -0.926 0.000
vn 1.000 0.000 0.000
vn 1.000 0.000 0.000
vn 1.000 0.000 0.000
vn 1.000 0.000 0.000
vn 0.000 0.000 -1.000
vn 0.000 0.000 -1.000
vn 0.000 0.000 -1.000
vn 0.000 0.000 -1.000
vn -1.000 0.000 0.000
vn -1.000 0.000 0.000
vn -1.000 0.000 0.000
vn -1.000 0.000 0.000
vn 0.000 1.000 0.000
vn 0.000 1.000 0.000
vn 0.000 1.000 0.000
vn 0.000 1.000 0.000
vn 0.000 1.000 0.000
vn 0.000 1.000 0.000
vn 0.000 1.000 0.000
vn 0.000 1.000 0.000
vn 0.000 1.000 0.000
vn 0.000 1.000 0.000
vn 0.000 1.000 0.000
vn 0.000 -1.000 0.000
vn 0.000 -1.000 0.000
vn 0.000 -1.000 0.000
vn 0.000 -1.000 0.000
vn 0.000 -1.000 0.000
vn 0.000 -1.000 0.000
vn 0.000 -1.000 0.000
vn 0.000 -1.000 0.000
vn 0.000 -1.000 0.000
vn 0.000 -1.000 0.000
vn 0.000 -1.000 0.000
vn -0.707 0.000 -0.707
vn -0.707 0.000 -0.707
vn -0.707 0.000 -0.707
vn -0.707 0.000 -0.707
vn 0.000 0.000 -1.000
vn 0.000 0.000 -1.000
vn 0.000 0.000 -1.000
vn 0.000 0.000 -1.000
vn -1.000 0.000 0.000
vn -1.000 0.000 0.000
vn -1.000 0.000 0.000
vn -1.000 0.000 0.000
vt 0.0000 0.0000 0
vt 0.0001 0.0002 0
vt 0.0001 0.0002 0
vt 0.0002 0.0002 0
vt 0.0002 0.0001 0
vt 0.0002 0.0001 0
vt 0.0003 0.0000 0
vt 0.0002 -0.0001 0
vt 0.0002 -0.0001 0
vt 0.0002 -0.0002 0
vt 0.0001 -0.0002 0
vt 0.0001 -0.0002 0
vt 0.0000 -0.0003 0
vt -0.0001 -0.0002 0
vt -0.0001 -0.0002 0
vt -0.0002 -0.0002 0
vt -0.0002 -0.0001 0
vt -0.0002 -0.0001 0
vt -0.0003 0.0000 0
vt -0.0002 0.0001 0
vt -0.0002 0.0001 0
vt -0.0002 0.0002 0
vt -0.0001 0.0002 0
vt -0.0001 0.0002 0
vt 0.0000 0.0003 0
vt -0.2618 0.0001 0
vt 0.0000 0.0001 0
vt 0.0000 0.0000 0
vt 5.7596 0.0001 0
vt -0.2618 0.0000 0
vt 5.4978 0.0001 0
vt 5.7596 0.0000 0
vt 5.2360 0.0001 0
vt 5.4978 0.0000 0
vt 4.9742 0.0001 0
vt 5.2360 0.0000 0
vt 4.7124 0.0001 0
vt 4.9742 0.0000 0
vt 4.4506 0.0001 0
vt 4.7124 0.0000 0
vt 4.1888 0.0001 0
vt 4.4506 0.0000 0
vt 3.9270 0.0001 0
vt 4.1888 0.0000 0
vt 3.6652 0.0001 0
vt 3.9270 0.0000 0
vt 3.4034 0.0001 0
vt 3.6652 0.0000 0
vt 3.1416 0.0001 0
vt 3.4034 0.0000 0
vt 2.8798 0.0001 0
vt 3.1416 0.0000 0
vt 2.6180 0.0001 0
vt 2.8798 0.0000 0
vt 2.3562 0.0001 0
vt 2.6180 0.0000 0
vt 2.0944 0.0001 0
vt 2.3562 0.0000 0
vt 1.8326 0.0001 0
vt 2.0944 0.0000 0
vt 1.5708 0.0001 0
vt 1.8326 0.0000 0
vt 1.3090 0.0001 0
vt 1.5708 0.0000 0
vt 1.0472 0.0001 0
vt 1.3090 0.0000 0
vt 0.7854 0.0001 0
vt 1.0472 0.0000 0
vt 0.5236 0.0001 0
vt 0.7854 0.0000 0
vt 0.2618 0.0001 0
vt 0.5236 0.0000 0
vt 0.2618 0.0000 0
vt -0.0015 0.0000 0
vt -0.0008 0.0002 0
vt -0.0008 0.0003 0
vt -0.0010 0.0000 0
vt -0.0007 0.0001 0
vt -0.0008 0.0000 0
vt -0.0007 -0.0001 0
vt -0.0006 0.0000 0
vt -0.0006 0.0006 0
vt -0.0007 0.0006 0
vt -0.0006 0.0005 0
vt -0.0008 0.0005 0
vt -0.0007 0.0004 0
vt -0.0006 0.0005 0
vt -0.0008 0.0003 0
vt -0.0007 0.0004 0
vt -0.0010 0.0005 0
vt -0.0007 0.0001 0
vt -0.0002 0.0005 0
vt -0.0004 0.0006 0
vt -0.0004 0.0005 0
vt -0.0005 0.0006 0
vt -0.0005 0.0005 0
vt -0.0005 0.0005 0
vt -0.0015 0.0005 0
vt -0.0006 -0.0001 0
vt -0.0005 0.0000 0
vt -0.0006 0.0000 0
vt -0.0002 0.0000 0
vt -0.0003 0.0001 0
vt -0.0004 0.0000 0
vt -0.0003 0.0003 0
vt 0.0005 0.0005 0
vt 0.0000 0.0005 0
vt -0.0003 0.0004 0
vt -0.0004 -0.0001 0
vt -0.0003 0.0001 0
vt -0.0003 0.0002 0
vt 0.0000 0.0000 0
vt -0.0003 0.0003 0
vt -0.0003 0.0004 0
vt -0.0005 -0.0001 0
vt -0.0005 0.0000 0
vt 0.0005 0.0000 0
vt 4.9060 0.0002 0
vt 5.0997 0.0002 0
vt 5.0997 0.0000 0
vt 4.7124 0.0002 0
vt 4.9060 0.0000 0
vt 4.7124 0.0000 0
vt 4.5187 0.0002 0
vt 4.7124 0.0002 0
vt 4.7124 0.0000 0
vt 4.3251 0.0002 0
vt 4.5187 0.0000 0
vt 4.3251 0.0000 0
vt 1.1835 0.0002 0
vt 1.1835 0.0000 0
vt 1.4417 0.0000 0
vt 1.4417 0.0002 0
vt 1.6999 0.0000 0
vt 1.6999 0.0002 0
vt 1.9581 0.0000 0
vt 1.9581 0.0002 0
vt -0.0003 -0.0001 0
vt -0.0003 0.0001 0
vt -0.0003 0.0000 0
vt -0.0003 0.0000 0
vt -0.0003 -0.0003 0
vt -0.0003 0.0003 0
vt -0.0003 0.0005 0
vt -0.0003 -0.0005 0
vt 1.3771 0.0002 0
vt 1.5708 0.0002 0
vt 1.5708 0.0000 0
vt 1.1835 0.0002 0
vt 1.3771 0.0000 0
vt 1.1835 0.0000 0
vt 1.7645 0.0002 0
vt 1.9581 0.0002 0
vt 1.9581 0.0000 0
vt 1.5708 0.0002 0
vt 1.7645 0.0000 0
vt 1.5708 0.0000 0
vt 0.0003 -0.0001 0
vt 0.0003 0.0000 0
vt 0.0003 0.0000 0
vt 0.0003 0.0001 0
vt 0.0003 -0.0003 0
vt 0.0003 0.0003 0
vt 0.0003 0.0005 0
vt 0.0003 -0.0005 0
vt 4.3251 0.0002 0
vt 4.3251 0.0000 0
vt 4.5833 0.0000 0
vt 4.5833 0.0002 0
vt 4.8415 0.0000 0
vt 4.8415 0.0002 0
vt 5.0997 0.0000 0
vt 5.0997 0.0002 0
vt 0.0000 -0.0120 0
vt 0.0005 -0.0120 0
vt 0.0005 0.0000 0
vt 0.0000 0.0000 0
vt 0.0000 0.0005 0
vt -0.0005 0.0005 0
vt -0.0005 0.0000 0
vt 0.0000 0.0000 0
vt 0.0000 0.0000 0
vt 0.0000 0.0005 0
vt -0.0003 0.0005 0
vt -0.0003 0.0000 0
vt -0.0118 -0.0005 0
vt -0.0110 -0.0005 0
vt -0.0110 -0.0013 0
vt -0.0120 0.0000 0
vt -0.0117 -0.0020 0
vt -0.0118 -0.0015 0
vt -0.0120 -0.0020 0
vt -0.0120 -0.0015 0
vt 0.0000 0.0000 0
vt 0.0000 -0.0005 0
vt -0.0120 -0.0005 0
vt -0.0118 -0.0005 0
vt -0.0118 -0.0015 0
vt -0.0110 -0.0013 0
vt -0.0110 -0.0005 0
vt -0.0120 0.0000 0
vt -0.0120 -0.0005 0
vt 0.0000 0.0000 0
vt -0.0120 -0.0020 0
vt -0.0117 -0.0020 0
vt 0.0000 -0.0005 0
vt -0.0120 -0.0015 0
vt 0.0010 0.0000 0
vt 0.0010 0.0005 0
vt 0.0000 0.0005 0
vt 0.0000 0.0000 0
vt 0.0000 0.0008 0
vt -0.0005 0.0008 0
vt -0.0005 0.0000 0
vt 0.0000 0.0000 0
vt 0.0110 0.0000 0
vt 0.0110 0.0005 0
vt 0.0000 0.0005 0
vt 0.0000 0.0000 0
f 1/1/1 24/24/24 25/25/25
f 1/1/1 23/23/23 24/24/24
f 3/3/3 1/1/1 2/2/2
f 1/1/1 22/22/22 23/23/23
f 1/1/1 21/21/21 22/22/22
f 1/1/1 20/20/20 21/21/21
f 1/1/1 25/25/25 2/2/2
f 1/1/1 18/18/18 19/19/19
f 1/1/1 17/17/17 18/18/18
f 1/1/1 16/16/16 17/17/17
f 1/1/1 15/15/15 16/16/16
f 1/1/1 14/14/14 15/15/15
f 1/1/1 13/13/13 14/14/14
f 1/1/1 12/12/12 13/13/13
f 1/1/1 11/11/11 12/12/12
f 1/1/1 10/10/10 11/11/11
f 1/1/1 9/9/9 10/10/10
f 1/1/1 8/8/8 9/9/9
f 1/1/1 7/7/7 8/8/8
f 1/1/1 6/6/6 7/7/7
f 1/1/1 5/5/5 6/6/6
f 1/1/1 4/4/4 5/5/5
f 1/1/1 3/3/3 4/4/4
f 1/1/1 19/19/19 20/20/20
f 27/27/27 73/73/73 28/28/28
f 73/73/73 27/27/27 71/71/71
f 72/72/72 71/71/71 69/69/69
f 70/70/70 69/69/69 67/67/67
f 68/68/68 67/67/67 65/65/65
f 66/66/66 65/65/65 63/63/63
f 64/64/64 63/63/63 61/61/61
f 62/62/62 61/61/61 59/59/59
f 60/60/60 59/59/59 57/57/57
f 58/58/58 57/57/57 55/55/55
f 56/56/56 55/55/55 53/53/53
f 54/54/54 53/53/53 51/51/51
f 71/71/71 72/72/72 73/73/73
f 69/69/69 70/70/70 72/72/72
f 67/67/67 68/68/68 70/70/70
f 65/65/65 66/66/66 68/68/68
f 63/63/63 64/64/64 66/66/66
f 61/61/61 62/62/62 64/64/64
f 59/59/59 60/60/60 62/62/62
f 57/57/57 58/58/58 60/60/60
f 55/55/55 56/56/56 58/58/58
f 53/53/53 54/54/54 56/56/56
f 52/52/52 51/51/51 49/49/49
f 50/50/50 49/49/49 47/47/47
f 48/48/48 47/47/47 45/45/45
f 46/46/46 45/45/45 43/43/43
f 44/44/44 43/43/43 41/41/41
f 42/42/42 41/41/41 39/39/39
f 40/40/40 39/39/39 37/37/37
f 38/38/38 37/37/37 35/35/35
f 36/36/36 35/35/35 33/33/33
f 34/34/34 33/33/33 31/31/31
f 32/32/32 31/31/31 29/29/29
f 51/51/51 52/52/52 54/54/54
f 49/49/49 50/50/50 52/52/52
f 47/47/47 48/48/48 50/50/50
f 45/45/45 46/46/46 48/48/48
f 43/43/43 44/44/44 46/46/46
f 41/41/41 42/42/42 44/44/44
f 39/39/39 40/40/40 42/42/42
f 37/37/37 38/38/38 40/40/40
f 35/35/35 36/36/36 38/38/38
f 33/33/33 34/34/34 36/36/36
f 31/31/31 32/32/32 34/34/34
f 30/30/30 29/29/29 26/26/26
f 28/28/28 26/26/26 27/27/27
f 29/29/29 30/30/30 32/32/32
f 26/26/26 28/28/28 30/30/30
f 121/121/121 122/122/122 123/123/123
f 122/122/122 121/121/121 118/118/118
f 120/120/120 118/118/118 119/119/119
f 118/118/118 120/120/120 122/122/122
f 128/128/128 127/127/127 124/124/124
f 127/127/127 128/128/128 129/129/129
f 124/124/124 126/126/126 128/128/128
f 126/126/126 124/124/124 125/125/125
f 149/149/149 150/150/150 151/151/151
f 150/150/150 149/149/149 146/146/146
f 148/148/148 146/146/146 147/147/147
f 146/146/146 148/148/148 150/150/150
f 155/155/155 156/156/156 157/157/157
f 156/156/156 155/155/155 152/152/152
f 154/154/154 152/152/152 153/153/153
f 152/152/152 154/154/154 156/156/156
f 162/162/162 163/163/163 164/164/164
f 158/158/158 161/161/161 162/162/162
f 158/158/158 160/160/160 161/161/161
f 162/162/162 161/161/161 163/163/163
f 162/162/162 164/164/164 165/165/165
f 160/160/160 158/158/158 159/159/159
f 166/166/166 168/168/168 169/169/169
f 169/169/169 170/170/170 171/171/171
f 171/171/171 172/172/172 173/173/173
f 172/172/172 171/171/171 170/170/170
f 170/170/170 169/169/169 168/168/168
f 168/168/168 166/166/166 167/167/167
f 134/134/134 133/133/133 132/132/132
f 136/136/136 135/135/135 134/134/134
f 130/130/130 132/132/132 133/133/133
f 132/132/132 130/130/130 131/131/131
f 135/135/135 136/136/136 137/137/137
f 133/133/133 134/134/134 135/135/135
f 143/143/143 142/142/142 144/144/144
f 139/139/139 142/142/142 143/143/143
f 138/138/138 140/140/140 141/141/141
f 144/144/144 142/142/142 145/145/145
f 139/139/139 138/138/138 142/142/142
f 140/140/140 138/138/138 139/139/139
f 178/178/178 180/180/180 181/181/181
f 180/180/180 178/178/178 179/179/179
f 174/174/174 176/176/176 177/177/177
f 176/176/176 174/174/174 175/175/175
f 110/110/110 102/102/102 112/112/112
f 116/116/116 115/115/115 109/109/109
f 100/100/100 99/99/99 115/115/115
f 88/88/88 90/90/90 98/98/98
f 95/95/95 97/97/97 93/93/93
f 108/108/108 92/92/92 114/114/114
f 113/113/113 106/106/106 105/105/105
f 101/101/101 99/99/99 100/100/100
f 78/78/78 79/79/79 91/91/91
f 88/88/88 98/98/98 76/76/76
f 111/111/111 117/117/117 113/113/113
f 105/105/105 107/107/107 108/108/108
f 83/83/83 87/87/87 84/84/84
f 115/115/115 116/116/116 100/100/100
f 85/85/85 89/89/89 86/86/86
f 85/85/85 87/87/87 83/83/83
f 82/82/82 96/96/96 95/95/95
f 97/97/97 95/95/95 96/96/96
f 94/94/94 92/92/92 93/93/93
f 79/79/79 81/81/81 91/91/91
f 82/82/82 84/84/84 96/96/96
f 112/112/112 111/111/111 110/110/110
f 102/102/102 110/110/110 103/103/103
f 102/102/102 104/104/104 109/109/109
f 99/99/99 101/101/101 80/80/80
f 107/107/107 105/105/105 106/106/106
f 92/92/92 108/108/108 107/107/107
f 94/94/94 93/93/93 97/97/97
f 89/89/89 85/85/85 90/90/90
f 104/104/104 102/102/102 103/103/103
f 111/111/111 112/112/112 117/117/117
f 92/92/92 94/94/94 114/114/114
f 109/109/109 104/104/104 116/116/116
f 74/74/74 76/76/76 98/98/98
f 106/106/106 113/113/113 117/117/117
f 76/76/76 74/74/74 75/75/75
f 77/77/77 75/75/75 74/74/74
f 79/79/79 78/78/78 77/77/77
f 81/81/81 79/79/79 80/80/80
f 84/84/84 82/82/82 83/83/83
f 87/87/87 85/85/85 86/86/86
f 90/90/90 88/88/88 89/89/89
f 75/75/75 77/77/77 78/78/78
f 80/80/80 101/101/101 81/81/81
f 182/182/182 184/184/184 185/185/185
f 184/184/184 182/182/182 183/183/183
f 210/210/210 208/208/208 209/209/209
f 208/208/208 210/210/210 211/211/211
f 214/214/214 212/212/212 213/213/213
f 212/212/212 214/214/214 215/215/215
f 216/216/216 218/218/218 219/219/219
f 218/218/218 216/216/216 217/217/217
f 189/189/189 186/186/186 196/196/196
f 194/194/194 187/187/187 189/189/189
f 187/187/187 194/194/194 195/195/195
f 192/192/192 191/191/191 190/190/190
f 191/191/191 192/192/192 193/193/193
f 186/186/186 188/188/188 191/191/191
f 191/191/191 188/188/188 190/190/190
f 186/186/186 189/189/189 187/187/187
f 188/188/188 186/186/186 187/187/187
f 204/204/204 198/198/198 207/207/207
f 203/203/203 200/200/200 206/206/206
f 199/199/199 198/198/198 205/205/205
f 198/198/198 204/204/204 205/205/205
f 199/199/199 197/197/197 198/198/198
f 200/200/200 203/203/203 201/201/201
f 197/197/197 201/201/201 202/202/202
f 197/197/197 199/199/199 200/200/200
f 201/201/201 197/197/197 200/200/200
