# Wavefront .OBJ file for tesselated shape: RH Shoulder.step-2/Sunfounder Servo 55g v8(Mirror).step-1/Sunfounder Servo 55g v8(Mirror)-19.step-1 path: C:\Users\matta\AppData\Local\Temp\swx18596\IC~~\Sunfounder Servo 55g v8(Mirror)-19.step.SLDPRT

g body_1
v -0.007846 -0.001204 -0.039400
v -0.007664 -0.001342 -0.039400
v -0.007594 -0.001203 -0.039400
v -0.007753 -0.001008 -0.039400
v -0.007531 -0.001060 -0.039400
v -0.007678 -0.000804 -0.039400
v -0.007954 -0.001392 -0.039400
v -0.007846 -0.001204 -0.043400
v -0.007954 -0.001392 -0.043400
v -0.007954 -0.001392 -0.039400
v -0.007753 -0.001008 -0.043400
v -0.007846 -0.001204 -0.039400
v -0.007678 -0.000804 -0.043400
v -0.007753 -0.001008 -0.039400
v -0.007678 -0.000804 -0.039400
v -0.007678 -0.000804 -0.039400
v -0.007597 -0.000945 -0.043303
v -0.007661 -0.000833 -0.043400
v -0.007531 -0.001060 -0.039400
v -0.007531 -0.001060 -0.043200
v -0.007678 -0.000804 -0.043400
v -0.007954 -0.001392 -0.039400
v -0.007794 -0.001365 -0.043303
v -0.007664 -0.001342 -0.043200
v -0.007954 -0.001392 -0.043400
v -0.007921 -0.001387 -0.043400
v -0.007664 -0.001342 -0.039400
v -0.007846 -0.001204 -0.043400
v -0.007753 -0.001008 -0.043400
v -0.007733 -0.001023 -0.043400
v -0.007821 -0.001210 -0.043400
v -0.007921 -0.001387 -0.043400
v -0.007678 -0.000804 -0.043400
v -0.007661 -0.000833 -0.043400
v -0.007954 -0.001392 -0.043400
v -0.007594 -0.001203 -0.039400
v -0.007594 -0.001203 -0.043200
v -0.007548 -0.001101 -0.043200
v -0.007531 -0.001060 -0.039400
v -0.007664 -0.001342 -0.039400
v -0.007643 -0.001303 -0.043200
v -0.007664 -0.001342 -0.043200
v -0.007531 -0.001060 -0.043200
v -0.007821 -0.001210 -0.043400
v -0.007733 -0.001023 -0.043400
v -0.007594 -0.001203 -0.043200
v -0.007548 -0.001101 -0.043200
v -0.007597 -0.000945 -0.043303
v -0.007531 -0.001060 -0.043200
v -0.007661 -0.000833 -0.043400
v -0.007643 -0.001303 -0.043200
v -0.007664 -0.001342 -0.043200
v -0.007794 -0.001365 -0.043303
v -0.007921 -0.001387 -0.043400
vn 0.000 0.000 1.000
vn 0.000 0.000 1.000
vn 0.000 0.000 1.000
vn 0.000 0.000 1.000
vn 0.000 0.000 1.000
vn 0.000 0.000 1.000
vn 0.000 0.000 1.000
vn -0.886 0.463 0.000
vn -0.845 0.536 0.000
vn -0.845 0.536 0.000
vn -0.922 0.388 0.000
vn -0.886 0.463 0.000
vn -0.951 0.309 0.000
vn -0.922 0.388 0.000
vn -0.951 0.309 0.000
vn 0.868 0.497 0.000
vn 0.868 0.497 0.000
vn 0.868 0.497 0.000
vn 0.868 0.497 0.000
vn 0.868 0.497 0.000
vn 0.868 0.497 0.000
vn 0.170 -0.985 0.000
vn 0.170 -0.985 0.000
vn 0.170 -0.985 0.000
vn 0.170 -0.985 0.000
vn 0.170 -0.985 0.000
vn 0.170 -0.985 0.000
vn 0.000 0.000 -1.000
vn 0.000 0.000 -1.000
vn 0.000 0.000 -1.000
vn 0.000 0.000 -1.000
vn 0.000 0.000 -1.000
vn 0.000 0.000 -1.000
vn 0.000 0.000 -1.000
vn 0.000 0.000 -1.000
vn 0.905 -0.426 0.000
vn 0.905 -0.426 0.000
vn 0.921 -0.390 0.000
vn 0.927 -0.375 0.000
vn 0.880 -0.475 0.000
vn 0.887 -0.461 0.000
vn 0.880 -0.475 0.000
vn 0.927 -0.375 0.000
vn 0.627 -0.326 -0.707
vn 0.651 -0.276 -0.707
vn 0.640 -0.301 -0.707
vn 0.651 -0.276 -0.707
vn 0.663 -0.245 -0.707
vn 0.655 -0.265 -0.707
vn 0.671 -0.225 -0.707
vn 0.627 -0.326 -0.707
vn 0.622 -0.336 -0.707
vn 0.612 -0.354 -0.707
vn 0.600 -0.374 -0.707
vt -0.0001 -0.0001 0
vt 0.0001 -0.0002 0
vt 0.0001 -0.0001 0
vt 0.0000 0.0001 0
vt 0.0002 0.0000 0
vt 0.0001 0.0003 0
vt -0.0002 -0.0003 0
vt 1.6126 0.0000 0
vt 1.6961 0.0000 0
vt 1.6961 -0.0040 0
vt 1.5290 0.0000 0
vt 1.6126 -0.0040 0
vt 1.4455 0.0000 0
vt 1.5290 -0.0040 0
vt 1.4455 -0.0040 0
vt 0.0000 -0.0040 0
vt -0.0002 -0.0001 0
vt 0.0000 0.0000 0
vt -0.0003 -0.0040 0
vt -0.0003 -0.0002 0
vt 0.0000 0.0000 0
vt 0.0040 -0.0003 0
vt 0.0001 -0.0001 0
vt 0.0002 0.0000 0
vt 0.0000 -0.0003 0
vt 0.0000 -0.0003 0
vt 0.0040 0.0000 0
vt -0.0001 -0.0001 0
vt 0.0000 0.0001 0
vt 0.0000 0.0001 0
vt -0.0001 -0.0001 0
vt -0.0002 -0.0002 0
vt 0.0000 0.0003 0
vt 0.0000 0.0003 0
vt -0.0002 -0.0002 0
vt 6.2279 -0.0040 0
vt 6.2279 -0.0002 0
vt 6.1885 -0.0002 0
vt 6.1725 -0.0040 0
vt 6.2832 -0.0040 0
vt 6.2672 -0.0002 0
vt 6.2832 -0.0002 0
vt 6.1725 -0.0002 0
vt 6.2991 -0.0001 0
vt 6.3779 -0.0001 0
vt 0.0553 0.0001 0
vt 0.0947 0.0001 0
vt 6.4238 0.0000 0
vt 6.3938 0.0001 0
vt 6.4552 -0.0001 0
vt 0.0159 0.0001 0
vt 6.2832 0.0001 0
vt 6.2532 0.0000 0
vt 6.2218 -0.0001 0
f 4/4/4 5/5/5 6/6/6
f 1/1/1 3/3/3 4/4/4
f 4/4/4 3/3/3 5/5/5
f 2/2/2 1/1/1 7/7/7
f 3/3/3 1/1/1 2/2/2
f 29/29/29 34/34/34 30/30/30
f 28/28/28 30/30/30 31/31/31
f 28/28/28 32/32/32 35/35/35
f 34/34/34 29/29/29 33/33/33
f 30/30/30 28/28/28 29/29/29
f 32/32/32 28/28/28 31/31/31
f 10/10/10 8/8/8 9/9/9
f 12/12/12 11/11/11 8/8/8
f 14/14/14 13/13/13 11/11/11
f 13/13/13 14/14/14 15/15/15
f 8/8/8 10/10/10 12/12/12
f 11/11/11 12/12/12 14/14/14
f 16/16/16 20/20/20 17/17/17
f 16/16/16 18/18/18 21/21/21
f 18/18/18 16/16/16 17/17/17
f 20/20/20 16/16/16 19/19/19
f 26/26/26 22/22/22 25/25/25
f 24/24/24 22/22/22 23/23/23
f 22/22/22 24/24/24 27/27/27
f 22/22/22 26/26/26 23/23/23
f 39/39/39 38/38/38 43/43/43
f 38/38/38 36/36/36 37/37/37
f 36/36/36 38/38/38 39/39/39
f 41/41/41 36/36/36 40/40/40
f 41/41/41 40/40/40 42/42/42
f 36/36/36 41/41/41 37/37/37
f 44/44/44 46/46/46 51/51/51
f 46/46/46 45/45/45 47/47/47
f 49/49/49 45/45/45 48/48/48
f 48/48/48 45/45/45 50/50/50
f 52/52/52 44/44/44 51/51/51
f 45/45/45 49/49/49 47/47/47
f 44/44/44 53/53/53 54/54/54
f 44/44/44 52/52/52 53/53/53
f 46/46/46 44/44/44 45/45/45
