# Wavefront .OBJ file for tesselated shape: RH Shoulder.step-2/Sunfounder Servo 55g v8(Mirror).step-1/Sunfounder Servo 55g v8(Mirror)-22.step-1 path: C:\Users\matta\AppData\Local\Temp\swx18596\IC~~\Sunfounder Servo 55g v8(Mirror)-22.step.SLDPRT

g body_1
v -0.007646 0.000699 -0.039400
v -0.007419 0.000723 -0.039400
v -0.007463 0.000873 -0.039400
v -0.007713 0.000906 -0.039400
v -0.007516 0.001020 -0.039400
v -0.007797 0.001106 -0.039400
v -0.007596 0.000488 -0.039400
v -0.007646 0.000699 -0.043400
v -0.007596 0.000488 -0.043400
v -0.007596 0.000488 -0.039400
v -0.007713 0.000906 -0.043400
v -0.007646 0.000699 -0.039400
v -0.007797 0.001106 -0.043400
v -0.007713 0.000906 -0.039400
v -0.007797 0.001106 -0.039400
v -0.007797 0.001106 -0.039400
v -0.007642 0.001059 -0.043303
v -0.007765 0.001096 -0.043400
v -0.007516 0.001020 -0.039400
v -0.007516 0.001020 -0.043200
v -0.007797 0.001106 -0.043400
v -0.007596 0.000488 -0.039400
v -0.007499 0.000618 -0.043303
v -0.007419 0.000723 -0.043200
v -0.007596 0.000488 -0.043400
v -0.007576 0.000515 -0.043400
v -0.007419 0.000723 -0.039400
v -0.007713 0.000906 -0.043400
v -0.007687 0.000909 -0.043400
v -0.007623 0.000712 -0.043400
v -0.007646 0.000699 -0.043400
v -0.007576 0.000515 -0.043400
v -0.007797 0.001106 -0.043400
v -0.007765 0.001096 -0.043400
v -0.007596 0.000488 -0.043400
v -0.007463 0.000873 -0.039400
v -0.007463 0.000873 -0.043200
v -0.007500 0.000978 -0.043200
v -0.007516 0.001020 -0.039400
v -0.007419 0.000723 -0.039400
v -0.007431 0.000767 -0.043200
v -0.007419 0.000723 -0.043200
v -0.007516 0.001020 -0.043200
v -0.007623 0.000712 -0.043400
v -0.007687 0.000909 -0.043400
v -0.007463 0.000873 -0.043200
v -0.007500 0.000978 -0.043200
v -0.007642 0.001059 -0.043303
v -0.007516 0.001020 -0.043200
v -0.007765 0.001096 -0.043400
v -0.007431 0.000767 -0.043200
v -0.007419 0.000723 -0.043200
v -0.007499 0.000618 -0.043303
v -0.007576 0.000515 -0.043400
vn 0.000 0.000 1.000
vn 0.000 0.000 1.000
vn 0.000 0.000 1.000
vn 0.000 0.000 1.000
vn 0.000 0.000 1.000
vn 0.000 0.000 1.000
vn 0.000 0.000 1.000
vn -0.963 -0.269 0.000
vn -0.982 -0.188 0.000
vn -0.982 -0.188 0.000
vn -0.937 -0.348 0.000
vn -0.963 -0.269 0.000
vn -0.905 -0.425 0.000
vn -0.937 -0.348 0.000
vn -0.905 -0.425 0.000
vn 0.292 0.956 0.000
vn 0.292 0.956 0.000
vn 0.292 0.956 0.000
vn 0.292 0.956 0.000
vn 0.292 0.956 0.000
vn 0.292 0.956 0.000
vn 0.799 -0.602 0.000
vn 0.799 -0.602 0.000
vn 0.799 -0.602 0.000
vn 0.799 -0.602 0.000
vn 0.799 -0.602 0.000
vn 0.799 -0.602 0.000
vn 0.000 0.000 -1.000
vn 0.000 0.000 -1.000
vn 0.000 0.000 -1.000
vn 0.000 0.000 -1.000
vn 0.000 0.000 -1.000
vn 0.000 0.000 -1.000
vn 0.000 0.000 -1.000
vn 0.000 0.000 -1.000
vn 0.951 0.309 0.000
vn 0.951 0.309 0.000
vn 0.938 0.346 0.000
vn 0.933 0.361 0.000
vn 0.967 0.256 0.000
vn 0.962 0.271 0.000
vn 0.967 0.256 0.000
vn 0.933 0.361 0.000
vn 0.681 0.192 -0.707
vn 0.663 0.245 -0.707
vn 0.672 0.219 -0.707
vn 0.663 0.245 -0.707
vn 0.651 0.275 -0.707
vn 0.659 0.255 -0.707
vn 0.642 0.295 -0.707
vn 0.681 0.192 -0.707
vn 0.684 0.181 -0.707
vn 0.689 0.160 -0.707
vn 0.693 0.139 -0.707
vt 0.0000 -0.0001 0
vt 0.0002 -0.0001 0
vt 0.0001 0.0001 0
vt -0.0001 0.0001 0
vt 0.0001 0.0002 0
vt -0.0002 0.0003 0
vt 0.0000 -0.0003 0
vt 1.6126 0.0000 0
vt 1.6961 0.0000 0
vt 1.6961 -0.0040 0
vt 1.5290 0.0000 0
vt 1.6126 -0.0040 0
vt 1.4455 0.0000 0
vt 1.5290 -0.0040 0
vt 1.4455 -0.0040 0
vt 0.0000 -0.0040 0
vt -0.0002 -0.0001 0
vt 0.0000 0.0000 0
vt -0.0003 -0.0040 0
vt -0.0003 -0.0002 0
vt 0.0000 0.0000 0
vt 0.0040 -0.0003 0
vt 0.0001 -0.0001 0
vt 0.0002 0.0000 0
vt 0.0000 -0.0003 0
vt 0.0000 -0.0003 0
vt 0.0040 0.0000 0
vt -0.0001 0.0001 0
vt -0.0001 0.0001 0
vt 0.0000 -0.0001 0
vt -0.0001 -0.0001 0
vt 0.0000 -0.0003 0
vt -0.0002 0.0003 0
vt -0.0002 0.0003 0
vt 0.0000 -0.0003 0
vt 6.2279 -0.0040 0
vt 6.2279 -0.0002 0
vt 6.1885 -0.0002 0
vt 6.1725 -0.0040 0
vt 6.2832 -0.0040 0
vt 6.2672 -0.0002 0
vt 6.2832 -0.0002 0
vt 6.1725 -0.0002 0
vt 6.2991 -0.0001 0
vt 6.3779 -0.0001 0
vt 0.0553 0.0001 0
vt 0.0947 0.0001 0
vt 6.4238 0.0000 0
vt 6.3938 0.0001 0
vt 6.4552 -0.0001 0
vt 0.0159 0.0001 0
vt 6.2832 0.0001 0
vt 6.2532 0.0000 0
vt 6.2218 -0.0001 0
f 4/4/4 5/5/5 6/6/6
f 1/1/1 3/3/3 4/4/4
f 4/4/4 3/3/3 5/5/5
f 2/2/2 1/1/1 7/7/7
f 3/3/3 1/1/1 2/2/2
f 32/32/32 31/31/31 30/30/30
f 34/34/34 28/28/28 33/33/33
f 31/31/31 32/32/32 35/35/35
f 28/28/28 30/30/30 31/31/31
f 28/28/28 34/34/34 29/29/29
f 30/30/30 28/28/28 29/29/29
f 8/8/8 10/10/10 12/12/12
f 11/11/11 12/12/12 14/14/14
f 13/13/13 14/14/14 15/15/15
f 14/14/14 13/13/13 11/11/11
f 12/12/12 11/11/11 8/8/8
f 10/10/10 8/8/8 9/9/9
f 16/16/16 20/20/20 17/17/17
f 20/20/20 16/16/16 19/19/19
f 18/18/18 16/16/16 17/17/17
f 16/16/16 18/18/18 21/21/21
f 26/26/26 22/22/22 25/25/25
f 22/22/22 26/26/26 23/23/23
f 22/22/22 24/24/24 27/27/27
f 24/24/24 22/22/22 23/23/23
f 36/36/36 41/41/41 37/37/37
f 41/41/41 36/36/36 40/40/40
f 36/36/36 38/38/38 39/39/39
f 38/38/38 36/36/36 37/37/37
f 41/41/41 40/40/40 42/42/42
f 39/39/39 38/38/38 43/43/43
f 44/44/44 46/46/46 51/51/51
f 45/45/45 49/49/49 47/47/47
f 44/44/44 53/53/53 54/54/54
f 44/44/44 52/52/52 53/53/53
f 48/48/48 45/45/45 50/50/50
f 49/49/49 45/45/45 48/48/48
f 46/46/46 45/45/45 47/47/47
f 52/52/52 44/44/44 51/51/51
f 46/46/46 44/44/44 45/45/45
