# Wavefront .OBJ file for tesselated shape: RH Shoulder.step-2/Sunfounder Servo 55g v8(Mirror).step-1/Sunfounder Servo 55g v8(Mirror)-14.step-1 path: C:\Users\matta\AppData\Local\Temp\swx18596\IC~~\Sunfounder Servo 55g v8(Mirror)-14.step.SLDPRT

g body_1
v -0.010583 -0.002564 -0.039400
v -0.010658 -0.002779 -0.039400
v -0.010504 -0.002803 -0.039400
v -0.010368 -0.002591 -0.039400
v -0.010349 -0.002818 -0.039400
v -0.010151 -0.002600 -0.039400
v -0.010796 -0.002519 -0.039400
v -0.010583 -0.002564 -0.043400
v -0.010796 -0.002519 -0.043400
v -0.010796 -0.002519 -0.039400
v -0.010368 -0.002591 -0.043400
v -0.010583 -0.002564 -0.039400
v -0.010151 -0.002600 -0.043400
v -0.010368 -0.002591 -0.039400
v -0.010151 -0.002600 -0.039400
v -0.010151 -0.002600 -0.039400
v -0.010260 -0.002720 -0.043303
v -0.010173 -0.002625 -0.043400
v -0.010349 -0.002818 -0.039400
v -0.010349 -0.002818 -0.043200
v -0.010151 -0.002600 -0.043400
v -0.010796 -0.002519 -0.039400
v -0.010720 -0.002662 -0.043303
v -0.010658 -0.002779 -0.043200
v -0.010796 -0.002519 -0.043400
v -0.010780 -0.002548 -0.043400
v -0.010658 -0.002779 -0.039400
v -0.010368 -0.002591 -0.043400
v -0.010151 -0.002600 -0.043400
v -0.010173 -0.002625 -0.043400
v -0.010376 -0.002615 -0.043400
v -0.010581 -0.002589 -0.043400
v -0.010583 -0.002564 -0.043400
v -0.010780 -0.002548 -0.043400
v -0.010796 -0.002519 -0.043400
v -0.010504 -0.002803 -0.039400
v -0.010504 -0.002803 -0.043200
v -0.010393 -0.002814 -0.043200
v -0.010349 -0.002818 -0.039400
v -0.010658 -0.002779 -0.039400
v -0.010614 -0.002787 -0.043200
v -0.010658 -0.002779 -0.043200
v -0.010349 -0.002818 -0.043200
v -0.010581 -0.002589 -0.043400
v -0.010376 -0.002615 -0.043400
v -0.010504 -0.002803 -0.043200
v -0.010393 -0.002814 -0.043200
v -0.010260 -0.002720 -0.043303
v -0.010349 -0.002818 -0.043200
v -0.010173 -0.002625 -0.043400
v -0.010614 -0.002787 -0.043200
v -0.010658 -0.002779 -0.043200
v -0.010720 -0.002662 -0.043303
v -0.010780 -0.002548 -0.043400
vn 0.000 0.000 1.000
vn 0.000 0.000 1.000
vn 0.000 0.000 1.000
vn 0.000 0.000 1.000
vn 0.000 0.000 1.000
vn 0.000 0.000 1.000
vn 0.000 0.000 1.000
vn 0.167 0.986 0.000
vn 0.248 0.969 0.000
vn 0.248 0.969 0.000
vn 0.084 0.996 0.000
vn 0.167 0.986 0.000
vn 0.000 1.000 0.000
vn 0.084 0.996 0.000
vn 0.000 1.000 0.000
vn 0.741 -0.672 0.000
vn 0.741 -0.672 0.000
vn 0.741 -0.672 0.000
vn 0.741 -0.672 0.000
vn 0.741 -0.672 0.000
vn 0.741 -0.672 0.000
vn -0.885 -0.466 0.000
vn -0.885 -0.466 0.000
vn -0.885 -0.466 0.000
vn -0.885 -0.466 0.000
vn -0.885 -0.466 0.000
vn -0.885 -0.466 0.000
vn 0.000 0.000 -1.000
vn 0.000 0.000 -1.000
vn 0.000 0.000 -1.000
vn 0.000 0.000 -1.000
vn 0.000 0.000 -1.000
vn 0.000 0.000 -1.000
vn 0.000 0.000 -1.000
vn 0.000 0.000 -1.000
vn -0.125 -0.992 0.000
vn -0.125 -0.992 0.000
vn -0.086 -0.996 0.000
vn -0.070 -0.998 0.000
vn -0.180 -0.984 0.000
vn -0.164 -0.986 0.000
vn -0.180 -0.984 0.000
vn -0.070 -0.998 0.000
vn -0.116 -0.697 -0.707
vn -0.061 -0.704 -0.707
vn -0.089 -0.702 -0.707
vn -0.061 -0.704 -0.707
vn -0.029 -0.707 -0.707
vn -0.050 -0.705 -0.707
vn -0.006 -0.707 -0.707
vn -0.116 -0.697 -0.707
vn -0.127 -0.696 -0.707
vn -0.148 -0.691 -0.707
vn -0.170 -0.686 -0.707
vt -0.0001 0.0001 0
vt -0.0002 -0.0001 0
vt 0.0000 -0.0001 0
vt 0.0001 0.0001 0
vt 0.0001 -0.0001 0
vt 0.0003 0.0001 0
vt -0.0003 0.0001 0
vt 1.6126 0.0000 0
vt 1.6961 0.0000 0
vt 1.6961 -0.0040 0
vt 1.5290 0.0000 0
vt 1.6126 -0.0040 0
vt 1.4455 0.0000 0
vt 1.5290 -0.0040 0
vt 1.4455 -0.0040 0
vt 0.0040 0.0000 0
vt 0.0001 -0.0002 0
vt 0.0000 0.0000 0
vt 0.0040 -0.0003 0
vt 0.0002 -0.0003 0
vt 0.0000 0.0000 0
vt -0.0040 0.0003 0
vt -0.0001 0.0001 0
vt -0.0002 0.0000 0
vt 0.0000 0.0003 0
vt 0.0000 0.0003 0
vt -0.0040 0.0000 0
vt 0.0001 0.0001 0
vt 0.0003 0.0001 0
vt 0.0003 0.0001 0
vt 0.0001 0.0001 0
vt -0.0001 0.0001 0
vt -0.0001 0.0001 0
vt -0.0003 0.0001 0
vt -0.0003 0.0002 0
vt 6.2279 -0.0040 0
vt 6.2279 -0.0002 0
vt 6.1885 -0.0002 0
vt 6.1725 -0.0040 0
vt 6.2832 -0.0040 0
vt 6.2672 -0.0002 0
vt 6.2832 -0.0002 0
vt 6.1725 -0.0002 0
vt 6.2991 -0.0001 0
vt 6.3779 -0.0001 0
vt 0.0553 0.0001 0
vt 0.0947 0.0001 0
vt 6.4238 0.0000 0
vt 6.3938 0.0001 0
vt 6.4552 -0.0001 0
vt 0.0159 0.0001 0
vt 6.2832 0.0001 0
vt 6.2532 0.0000 0
vt 6.2218 -0.0001 0
f 4/4/4 5/5/5 6/6/6
f 4/4/4 3/3/3 5/5/5
f 1/1/1 3/3/3 4/4/4
f 3/3/3 1/1/1 2/2/2
f 2/2/2 1/1/1 7/7/7
f 33/33/33 34/34/34 35/35/35
f 28/28/28 32/32/32 33/33/33
f 32/32/32 28/28/28 31/31/31
f 30/30/30 28/28/28 29/29/29
f 34/34/34 33/33/33 32/32/32
f 28/28/28 30/30/30 31/31/31
f 13/13/13 14/14/14 15/15/15
f 11/11/11 12/12/12 14/14/14
f 14/14/14 13/13/13 11/11/11
f 12/12/12 11/11/11 8/8/8
f 8/8/8 10/10/10 12/12/12
f 10/10/10 8/8/8 9/9/9
f 18/18/18 16/16/16 17/17/17
f 20/20/20 16/16/16 19/19/19
f 16/16/16 18/18/18 21/21/21
f 16/16/16 20/20/20 17/17/17
f 24/24/24 22/22/22 23/23/23
f 26/26/26 22/22/22 25/25/25
f 22/22/22 26/26/26 23/23/23
f 22/22/22 24/24/24 27/27/27
f 41/41/41 36/36/36 40/40/40
f 36/36/36 38/38/38 39/39/39
f 38/38/38 36/36/36 37/37/37
f 36/36/36 41/41/41 37/37/37
f 39/39/39 38/38/38 43/43/43
f 41/41/41 40/40/40 42/42/42
f 44/44/44 46/46/46 51/51/51
f 45/45/45 49/49/49 47/47/47
f 44/44/44 53/53/53 54/54/54
f 44/44/44 52/52/52 53/53/53
f 52/52/52 44/44/44 51/51/51
f 49/49/49 45/45/45 48/48/48
f 46/46/46 45/45/45 47/47/47
f 46/46/46 44/44/44 45/45/45
f 48/48/48 45/45/45 50/50/50
