# Wavefront .OBJ file for tesselated shape: RH Lower Leg.step-2/Sunfounder Servo 55g v8(Mirror) (2).step-1/Sunfounder Servo 55g v8(Mirror) (2)-27.step-1 path: C:\Users\matta\AppData\Local\Temp\swx18596\IC~~\Sunfounder Servo 55g v8(Mirror) (2)-27.step.SLDPRT

g body_1
v -0.024050 -0.002030 -0.004870
v -0.024050 -0.002224 -0.005206
v -0.024050 -0.002250 -0.005400
v -0.024050 -0.000776 -0.005206
v -0.024050 -0.000850 -0.005025
v -0.024050 -0.000970 -0.004870
v -0.024050 -0.001500 -0.004650
v -0.024050 -0.000850 -0.005775
v -0.024050 -0.000776 -0.005594
v -0.024050 -0.001875 -0.006050
v -0.024050 -0.001694 -0.006124
v -0.024050 -0.002150 -0.005775
v -0.024050 -0.002030 -0.005930
v -0.024050 -0.002150 -0.005025
v -0.024050 -0.001125 -0.004750
v -0.024050 -0.000750 -0.005400
v -0.024050 -0.001500 -0.006150
v -0.024050 -0.001306 -0.006124
v -0.024050 -0.002224 -0.005594
v -0.024050 -0.000970 -0.005930
v -0.024050 -0.001694 -0.004676
v -0.024050 -0.001306 -0.004676
v -0.024050 -0.001125 -0.006050
v -0.024050 -0.001875 -0.004750
v -0.024050 -0.000750 -0.005400
v -0.043050 -0.000750 -0.005400
v -0.043050 -0.000776 -0.005206
v -0.024050 -0.000776 -0.005206
v -0.043050 -0.000850 -0.005025
v -0.024050 -0.000850 -0.005025
v -0.043050 -0.000970 -0.004870
v -0.024050 -0.000970 -0.004870
v -0.043050 -0.001125 -0.004750
v -0.024050 -0.001125 -0.004750
v -0.043050 -0.001306 -0.004676
v -0.024050 -0.001306 -0.004676
v -0.043050 -0.001500 -0.004650
v -0.024050 -0.001500 -0.004650
v -0.043050 -0.001694 -0.004676
v -0.024050 -0.001694 -0.004676
v -0.043050 -0.001875 -0.004750
v -0.024050 -0.001875 -0.004750
v -0.043050 -0.002030 -0.004870
v -0.024050 -0.002030 -0.004870
v -0.043050 -0.002150 -0.005025
v -0.024050 -0.002150 -0.005025
v -0.043050 -0.002224 -0.005206
v -0.024050 -0.002224 -0.005206
v -0.043050 -0.002250 -0.005400
v -0.024050 -0.002250 -0.005400
v -0.024050 -0.002250 -0.005400
v -0.043050 -0.002250 -0.005400
v -0.043050 -0.002224 -0.005594
v -0.024050 -0.002224 -0.005594
v -0.043050 -0.002150 -0.005775
v -0.024050 -0.002150 -0.005775
v -0.043050 -0.002030 -0.005930
v -0.024050 -0.002030 -0.005930
v -0.043050 -0.001875 -0.006050
v -0.024050 -0.001875 -0.006050
v -0.043050 -0.001694 -0.006124
v -0.024050 -0.001694 -0.006124
v -0.043050 -0.001500 -0.006150
v -0.024050 -0.001500 -0.006150
v -0.043050 -0.001306 -0.006124
v -0.024050 -0.001306 -0.006124
v -0.043050 -0.001125 -0.006050
v -0.024050 -0.001125 -0.006050
v -0.043050 -0.000970 -0.005930
v -0.024050 -0.000970 -0.005930
v -0.043050 -0.000850 -0.005775
v -0.024050 -0.000850 -0.005775
v -0.043050 -0.000776 -0.005594
v -0.024050 -0.000776 -0.005594
v -0.043050 -0.000750 -0.005400
v -0.024050 -0.000750 -0.005400
v -0.043050 -0.001306 -0.004676
v -0.043050 -0.000750 -0.005400
v -0.043050 -0.000776 -0.005594
v -0.043050 -0.000776 -0.005206
v -0.043050 -0.001125 -0.004750
v -0.043050 -0.000970 -0.004870
v -0.043050 -0.002030 -0.004870
v -0.043050 -0.002224 -0.005594
v -0.043050 -0.002250 -0.005400
v -0.043050 -0.000850 -0.005775
v -0.043050 -0.002224 -0.005206
v -0.043050 -0.001875 -0.006050
v -0.043050 -0.002030 -0.005930
v -0.043050 -0.001500 -0.006150
v -0.043050 -0.001694 -0.006124
v -0.043050 -0.000850 -0.005025
v -0.043050 -0.000970 -0.005930
v -0.043050 -0.001875 -0.004750
v -0.043050 -0.001694 -0.004676
v -0.043050 -0.002150 -0.005775
v -0.043050 -0.001125 -0.006050
v -0.043050 -0.001306 -0.006124
v -0.043050 -0.001500 -0.004650
v -0.043050 -0.002150 -0.005025
vn 1.000 0.000 0.000
vn 1.000 0.000 0.000
vn 1.000 0.000 0.000
vn 1.000 0.000 0.000
vn 1.000 0.000 0.000
vn 1.000 0.000 0.000
vn 1.000 0.000 0.000
vn 1.000 0.000 0.000
vn 1.000 0.000 0.000
vn 1.000 0.000 0.000
vn 1.000 0.000 0.000
vn 1.000 0.000 0.000
vn 1.000 0.000 0.000
vn 1.000 0.000 0.000
vn 1.000 0.000 0.000
vn 1.000 0.000 0.000
vn 1.000 0.000 0.000
vn 1.000 0.000 0.000
vn 1.000 0.000 0.000
vn 1.000 0.000 0.000
vn 1.000 0.000 0.000
vn 1.000 0.000 0.000
vn 1.000 0.000 0.000
vn 1.000 0.000 0.000
vn 0.000 1.000 0.000
vn 0.000 1.000 0.000
vn 0.000 0.966 0.259
vn 0.000 0.966 0.259
vn 0.000 0.866 0.500
vn 0.000 0.866 0.500
vn 0.000 0.707 0.707
vn 0.000 0.707 0.707
vn 0.000 0.500 0.866
vn 0.000 0.500 0.866
vn 0.000 0.259 0.966
vn 0.000 0.259 0.966
vn 0.000 0.000 1.000
vn 0.000 0.000 1.000
vn 0.000 -0.259 0.966
vn 0.000 -0.259 0.966
vn 0.000 -0.500 0.866
vn 0.000 -0.500 0.866
vn 0.000 -0.707 0.707
vn 0.000 -0.707 0.707
vn 0.000 -0.866 0.500
vn 0.000 -0.866 0.500
vn 0.000 -0.966 0.259
vn 0.000 -0.966 0.259
vn 0.000 -1.000 0.000
vn 0.000 -1.000 0.000
vn 0.000 -1.000 0.000
vn 0.000 -1.000 0.000
vn 0.000 -0.966 -0.259
vn 0.000 -0.966 -0.259
vn 0.000 -0.866 -0.500
vn 0.000 -0.866 -0.500
vn 0.000 -0.707 -0.707
vn 0.000 -0.707 -0.707
vn 0.000 -0.500 -0.866
vn 0.000 -0.500 -0.866
vn 0.000 -0.259 -0.966
vn 0.000 -0.259 -0.966
vn 0.000 0.000 -1.000
vn 0.000 0.000 -1.000
vn 0.000 0.259 -0.966
vn 0.000 0.259 -0.966
vn 0.000 0.500 -0.866
vn 0.000 0.500 -0.866
vn 0.000 0.707 -0.707
vn 0.000 0.707 -0.707
vn 0.000 0.866 -0.500
vn 0.000 0.866 -0.500
vn 0.000 0.966 -0.259
vn 0.000 0.966 -0.259
vn 0.000 1.000 0.000
vn 0.000 1.000 0.000
vn -1.000 0.000 0.000
vn -1.000 0.000 0.000
vn -1.000 0.000 0.000
vn -1.000 0.000 0.000
vn -1.000 0.000 0.000
vn -1.000 0.000 0.000
vn -1.000 0.000 0.000
vn -1.000 0.000 0.000
vn -1.000 0.000 0.000
vn -1.000 0.000 0.000
vn -1.000 0.000 0.000
vn -1.000 0.000 0.000
vn -1.000 0.000 0.000
vn -1.000 0.000 0.000
vn -1.000 0.000 0.000
vn -1.000 0.000 0.000
vn -1.000 0.000 0.000
vn -1.000 0.000 0.000
vn -1.000 0.000 0.000
vn -1.000 0.000 0.000
vn -1.000 0.000 0.000
vn -1.000 0.000 0.000
vn -1.000 0.000 0.000
vn -1.000 0.000 0.000
vt -0.0005 0.0005 0
vt -0.0007 0.0002 0
vt -0.0008 0.0000 0
vt 0.0007 0.0002 0
vt 0.0006 0.0004 0
vt 0.0005 0.0005 0
vt 0.0000 0.0008 0
vt 0.0006 -0.0004 0
vt 0.0007 -0.0002 0
vt -0.0004 -0.0006 0
vt -0.0002 -0.0007 0
vt -0.0006 -0.0004 0
vt -0.0005 -0.0005 0
vt -0.0006 0.0004 0
vt 0.0004 0.0006 0
vt 0.0008 0.0000 0
vt 0.0000 -0.0008 0
vt 0.0002 -0.0007 0
vt -0.0007 -0.0002 0
vt 0.0005 -0.0005 0
vt -0.0002 0.0007 0
vt 0.0002 0.0007 0
vt 0.0004 -0.0006 0
vt -0.0004 0.0006 0
vt 0.0000 0.0000 0
vt 0.0000 -0.0190 0
vt 0.2618 -0.0190 0
vt 0.2618 0.0000 0
vt 0.5236 -0.0190 0
vt 0.5236 0.0000 0
vt 0.7854 -0.0190 0
vt 0.7854 0.0000 0
vt 1.0472 -0.0190 0
vt 1.0472 0.0000 0
vt 1.3090 -0.0190 0
vt 1.3090 0.0000 0
vt 1.5708 -0.0190 0
vt 1.5708 0.0000 0
vt 1.8326 -0.0190 0
vt 1.8326 0.0000 0
vt 2.0944 -0.0190 0
vt 2.0944 0.0000 0
vt 2.3562 -0.0190 0
vt 2.3562 0.0000 0
vt 2.6180 -0.0190 0
vt 2.6180 0.0000 0
vt 2.8798 -0.0190 0
vt 2.8798 0.0000 0
vt 3.1416 -0.0190 0
vt 3.1416 0.0000 0
vt 3.1416 0.0000 0
vt 3.1416 -0.0190 0
vt 3.4034 -0.0190 0
vt 3.4034 0.0000 0
vt 3.6652 -0.0190 0
vt 3.6652 0.0000 0
vt 3.9270 -0.0190 0
vt 3.9270 0.0000 0
vt 4.1888 -0.0190 0
vt 4.1888 0.0000 0
vt 4.4506 -0.0190 0
vt 4.4506 0.0000 0
vt 4.7124 -0.0190 0
vt 4.7124 0.0000 0
vt 4.9742 -0.0190 0
vt 4.9742 0.0000 0
vt 5.2360 -0.0190 0
vt 5.2360 0.0000 0
vt 5.4978 -0.0190 0
vt 5.4978 0.0000 0
vt 5.7596 -0.0190 0
vt 5.7596 0.0000 0
vt 6.0214 -0.0190 0
vt 6.0214 0.0000 0
vt 6.2832 -0.0190 0
vt 6.2832 0.0000 0
vt 0.0002 0.0007 0
vt 0.0008 0.0000 0
vt 0.0007 -0.0002 0
vt 0.0007 0.0002 0
vt 0.0004 0.0006 0
vt 0.0005 0.0005 0
vt -0.0005 0.0005 0
vt -0.0007 -0.0002 0
vt -0.0008 0.0000 0
vt 0.0006 -0.0004 0
vt -0.0007 0.0002 0
vt -0.0004 -0.0006 0
vt -0.0005 -0.0005 0
vt 0.0000 -0.0008 0
vt -0.0002 -0.0007 0
vt 0.0006 0.0004 0
vt 0.0005 -0.0005 0
vt -0.0004 0.0006 0
vt -0.0002 0.0007 0
vt -0.0006 -0.0004 0
vt 0.0004 -0.0006 0
vt 0.0002 -0.0007 0
vt 0.0000 0.0008 0
vt -0.0006 0.0004 0
f 3/3/3 1/1/1 2/2/2
f 6/6/6 4/4/4 5/5/5
f 9/9/9 7/7/7 8/8/8
f 11/11/11 1/1/1 10/10/10
f 13/13/13 1/1/1 12/12/12
f 2/2/2 1/1/1 14/14/14
f 4/4/4 6/6/6 15/15/15
f 7/7/7 9/9/9 16/16/16
f 18/18/18 1/1/1 17/17/17
f 1/1/1 13/13/13 10/10/10
f 1/1/1 3/3/3 19/19/19
f 21/21/21 20/20/20 7/7/7
f 4/4/4 15/15/15 22/22/22
f 8/8/8 7/7/7 20/20/20
f 1/1/1 18/18/18 23/23/23
f 1/1/1 19/19/19 12/12/12
f 20/20/20 21/21/21 24/24/24
f 7/7/7 16/16/16 4/4/4
f 1/1/1 11/11/11 17/17/17
f 4/4/4 22/22/22 7/7/7
f 20/20/20 24/24/24 1/1/1
f 1/1/1 23/23/23 20/20/20
f 83/83/83 87/87/87 100/100/100
f 83/83/83 98/98/98 90/90/90
f 93/93/93 95/95/95 99/99/99
f 97/97/97 83/83/83 93/93/93
f 83/83/83 89/89/89 96/96/96
f 94/94/94 93/93/93 83/83/83
f 77/77/77 93/93/93 99/99/99
f 98/98/98 83/83/83 97/97/97
f 83/83/83 91/91/91 88/88/88
f 84/84/84 83/83/83 96/96/96
f 95/95/95 93/93/93 94/94/94
f 80/80/80 82/82/82 92/92/92
f 91/91/91 83/83/83 90/90/90
f 89/89/89 83/83/83 88/88/88
f 83/83/83 85/85/85 87/87/87
f 81/81/81 80/80/80 77/77/77
f 77/77/77 79/79/79 86/86/86
f 85/85/85 83/83/83 84/84/84
f 82/82/82 80/80/80 81/81/81
f 78/78/78 77/77/77 80/80/80
f 79/79/79 77/77/77 78/78/78
f 77/77/77 86/86/86 93/93/93
f 28/28/28 29/29/29 30/30/30
f 25/25/25 27/27/27 28/28/28
f 30/30/30 31/31/31 32/32/32
f 29/29/29 28/28/28 27/27/27
f 31/31/31 30/30/30 29/29/29
f 33/33/33 32/32/32 31/31/31
f 35/35/35 34/34/34 33/33/33
f 37/37/37 36/36/36 35/35/35
f 39/39/39 38/38/38 37/37/37
f 41/41/41 40/40/40 39/39/39
f 43/43/43 42/42/42 41/41/41
f 45/45/45 44/44/44 43/43/43
f 47/47/47 46/46/46 45/45/45
f 49/49/49 48/48/48 47/47/47
f 48/48/48 49/49/49 50/50/50
f 46/46/46 47/47/47 48/48/48
f 44/44/44 45/45/45 46/46/46
f 42/42/42 43/43/43 44/44/44
f 40/40/40 41/41/41 42/42/42
f 38/38/38 39/39/39 40/40/40
f 36/36/36 37/37/37 38/38/38
f 34/34/34 35/35/35 36/36/36
f 32/32/32 33/33/33 34/34/34
f 27/27/27 25/25/25 26/26/26
f 54/54/54 55/55/55 56/56/56
f 51/51/51 53/53/53 54/54/54
f 58/58/58 59/59/59 60/60/60
f 60/60/60 61/61/61 62/62/62
f 62/62/62 63/63/63 64/64/64
f 64/64/64 65/65/65 66/66/66
f 66/66/66 67/67/67 68/68/68
f 68/68/68 69/69/69 70/70/70
f 70/70/70 71/71/71 72/72/72
f 72/72/72 73/73/73 74/74/74
f 74/74/74 75/75/75 76/76/76
f 75/75/75 74/74/74 73/73/73
f 73/73/73 72/72/72 71/71/71
f 71/71/71 70/70/70 69/69/69
f 69/69/69 68/68/68 67/67/67
f 67/67/67 66/66/66 65/65/65
f 65/65/65 64/64/64 63/63/63
f 63/63/63 62/62/62 61/61/61
f 61/61/61 60/60/60 59/59/59
f 59/59/59 58/58/58 57/57/57
f 57/57/57 56/56/56 55/55/55
f 55/55/55 54/54/54 53/53/53
f 56/56/56 57/57/57 58/58/58
f 53/53/53 51/51/51 52/52/52
