# Wavefront .OBJ file for tesselated shape: Upper Leg.step-1/Sunfounder Servo 55g.step-1/Sunfounder Servo 55g-12.step-1 path: C:\Users\matta\AppData\Local\Temp\swx18596\IC~~\Sunfounder Servo 55g-12.step.SLDPRT

g body_1
v -0.011765 -0.002038 0.039400
v -0.011589 -0.002165 0.039400
v -0.011810 -0.002285 0.039400
v -0.011682 -0.002374 0.039400
v -0.011934 -0.002190 0.039400
v -0.011929 -0.001896 0.039400
v -0.011403 -0.002278 0.039400
v -0.011765 -0.002038 0.039400
v -0.011929 -0.001896 0.039400
v -0.011929 -0.001896 0.043400
v -0.011589 -0.002165 0.039400
v -0.011765 -0.002038 0.043400
v -0.011403 -0.002278 0.039400
v -0.011589 -0.002165 0.043400
v -0.011403 -0.002278 0.043400
v -0.011403 -0.002278 0.039400
v -0.011557 -0.002331 0.043303
v -0.011682 -0.002374 0.043200
v -0.011403 -0.002278 0.043400
v -0.011435 -0.002289 0.043400
v -0.011682 -0.002374 0.039400
v -0.011929 -0.001896 0.039400
v -0.011932 -0.002058 0.043303
v -0.011930 -0.001930 0.043400
v -0.011934 -0.002190 0.039400
v -0.011934 -0.002190 0.043200
v -0.011929 -0.001896 0.043400
v -0.011765 -0.002038 0.043400
v -0.011929 -0.001896 0.043400
v -0.011930 -0.001930 0.043400
v -0.011589 -0.002165 0.043400
v -0.011775 -0.002061 0.043400
v -0.011608 -0.002183 0.043400
v -0.011435 -0.002289 0.043400
v -0.011403 -0.002278 0.043400
v -0.011810 -0.002285 0.039400
v -0.011682 -0.002374 0.039400
v -0.011719 -0.002349 0.043200
v -0.011682 -0.002374 0.043200
v -0.011810 -0.002285 0.043200
v -0.011899 -0.002218 0.043200
v -0.011934 -0.002190 0.039400
v -0.011934 -0.002190 0.043200
v -0.011608 -0.002183 0.043400
v -0.011775 -0.002061 0.043400
v -0.011810 -0.002285 0.043200
v -0.011899 -0.002218 0.043200
v -0.011719 -0.002349 0.043200
v -0.011682 -0.002374 0.043200
v -0.011557 -0.002331 0.043303
v -0.011932 -0.002058 0.043303
v -0.011934 -0.002190 0.043200
v -0.011930 -0.001930 0.043400
v -0.011435 -0.002289 0.043400
vn 0.000 0.000 -1.000
vn 0.000 0.000 -1.000
vn 0.000 0.000 -1.000
vn 0.000 0.000 -1.000
vn 0.000 0.000 -1.000
vn 0.000 0.000 -1.000
vn 0.000 0.000 -1.000
vn 0.621 0.784 0.000
vn 0.684 0.729 0.000
vn 0.684 0.729 0.000
vn 0.553 0.833 0.000
vn 0.621 0.784 0.000
vn 0.482 0.876 0.000
vn 0.553 0.833 0.000
vn 0.482 0.876 0.000
vn 0.326 -0.946 0.000
vn 0.326 -0.946 0.000
vn 0.326 -0.946 0.000
vn 0.326 -0.946 0.000
vn 0.326 -0.946 0.000
vn 0.326 -0.946 0.000
vn -1.000 0.017 0.000
vn -1.000 0.017 0.000
vn -1.000 0.017 0.000
vn -1.000 0.017 0.000
vn -1.000 0.017 0.000
vn -1.000 0.017 0.000
vn 0.000 0.000 1.000
vn 0.000 0.000 1.000
vn 0.000 0.000 1.000
vn 0.000 0.000 1.000
vn 0.000 0.000 1.000
vn 0.000 0.000 1.000
vn 0.000 0.000 1.000
vn 0.000 0.000 1.000
vn -0.588 -0.809 0.000
vn -0.542 -0.840 0.000
vn -0.555 -0.832 0.000
vn -0.542 -0.840 0.000
vn -0.588 -0.809 0.000
vn -0.619 -0.785 0.000
vn -0.632 -0.775 0.000
vn -0.632 -0.775 0.000
vn -0.393 -0.588 0.707
vn -0.438 -0.555 0.707
vn -0.416 -0.572 0.707
vn -0.438 -0.555 0.707
vn -0.393 -0.588 0.707
vn -0.383 -0.594 0.707
vn -0.365 -0.605 0.707
vn -0.463 -0.535 0.707
vn -0.447 -0.548 0.707
vn -0.479 -0.520 0.707
vn -0.346 -0.617 0.707
vt -0.0001 0.0001 0
vt 0.0001 0.0000 0
vt -0.0001 -0.0002 0
vt 0.0000 -0.0002 0
vt -0.0003 -0.0001 0
vt -0.0003 0.0002 0
vt 0.0003 -0.0001 0
vt 1.6126 0.0040 0
vt 1.6961 0.0040 0
vt 1.6961 0.0000 0
vt 1.5290 0.0040 0
vt 1.6126 0.0000 0
vt 1.4455 0.0040 0
vt 1.5290 0.0000 0
vt 1.4455 0.0000 0
vt 0.0040 0.0000 0
vt 0.0001 -0.0002 0
vt 0.0002 -0.0003 0
vt 0.0000 0.0000 0
vt 0.0000 0.0000 0
vt 0.0040 -0.0003 0
vt -0.0040 0.0003 0
vt -0.0001 0.0001 0
vt 0.0000 0.0003 0
vt -0.0040 0.0000 0
vt -0.0002 0.0000 0
vt 0.0000 0.0003 0
vt 0.0000 0.0001 0
vt -0.0002 0.0003 0
vt -0.0002 0.0003 0
vt 0.0001 0.0000 0
vt 0.0000 0.0001 0
vt 0.0001 0.0000 0
vt 0.0003 -0.0001 0
vt 0.0003 -0.0001 0
vt 6.2279 0.0040 0
vt 6.1725 0.0040 0
vt 6.1885 0.0002 0
vt 6.1725 0.0002 0
vt 6.2279 0.0002 0
vt 6.2672 0.0002 0
vt 6.2832 0.0040 0
vt 6.2832 0.0002 0
vt 6.1885 -0.0001 0
vt 6.2672 -0.0001 0
vt 6.2279 0.0001 0
vt -0.0159 0.0001 0
vt 6.1885 0.0001 0
vt 6.1725 0.0001 0
vt 6.1426 0.0000 0
vt 0.0300 0.0000 0
vt 0.0000 0.0001 0
vt 0.0614 -0.0001 0
vt 6.1111 -0.0001 0
f 1/1/1 5/5/5 6/6/6
f 1/1/1 3/3/3 5/5/5
f 3/3/3 2/2/2 4/4/4
f 3/3/3 1/1/1 2/2/2
f 4/4/4 2/2/2 7/7/7
f 30/30/30 28/28/28 29/29/29
f 32/32/32 31/31/31 28/28/28
f 31/31/31 32/32/32 33/33/33
f 34/34/34 31/31/31 33/33/33
f 31/31/31 34/34/34 35/35/35
f 28/28/28 30/30/30 32/32/32
f 11/11/11 12/12/12 14/14/14
f 8/8/8 10/10/10 12/12/12
f 12/12/12 11/11/11 8/8/8
f 10/10/10 8/8/8 9/9/9
f 14/14/14 13/13/13 11/11/11
f 13/13/13 14/14/14 15/15/15
f 18/18/18 16/16/16 17/17/17
f 20/20/20 16/16/16 19/19/19
f 16/16/16 18/18/18 21/21/21
f 16/16/16 20/20/20 17/17/17
f 24/24/24 22/22/22 23/23/23
f 26/26/26 22/22/22 25/25/25
f 22/22/22 26/26/26 23/23/23
f 22/22/22 24/24/24 27/27/27
f 38/38/38 37/37/37 39/39/39
f 41/41/41 36/36/36 40/40/40
f 36/36/36 41/41/41 42/42/42
f 42/42/42 41/41/41 43/43/43
f 36/36/36 38/38/38 40/40/40
f 38/38/38 36/36/36 37/37/37
f 46/46/46 44/44/44 45/45/45
f 46/46/46 45/45/45 47/47/47
f 49/49/49 44/44/44 48/48/48
f 44/44/44 49/49/49 50/50/50
f 52/52/52 45/45/45 51/51/51
f 51/51/51 45/45/45 53/53/53
f 45/45/45 52/52/52 47/47/47
f 44/44/44 50/50/50 54/54/54
f 44/44/44 46/46/46 48/48/48
