# Wavefront .OBJ file for tesselated shape: Torso.step-1/Body.step-1/Buck Converter 300W.step-1/2-pin terminal.step-1/Terminal.step-2 path: C:\Users\matta\AppData\Local\Temp\swx18596\IC~~\Terminal.step.SLDPRT

g body_1
v 0.000000 0.004000 0.000000
v 0.000091 0.004000 0.000542
v 0.000179 0.004000 0.000520
v 0.000262 0.004000 0.000484
v 0.000338 0.004000 0.000434
v 0.000405 0.004000 0.000373
v 0.000460 0.004000 0.000301
v 0.000504 0.004000 0.000221
v 0.000533 0.004000 0.000135
v 0.000548 0.004000 0.000045
v 0.000548 0.004000 -0.000045
v 0.000533 0.004000 -0.000135
v 0.000504 0.004000 -0.000221
v 0.000460 0.004000 -0.000301
v 0.000405 0.004000 -0.000373
v 0.000338 0.004000 -0.000434
v 0.000262 0.004000 -0.000484
v 0.000179 0.004000 -0.000520
v 0.000091 0.004000 -0.000542
v 0.000000 0.004000 -0.000550
v -0.000091 0.004000 -0.000542
v -0.000179 0.004000 -0.000520
v -0.000262 0.004000 -0.000484
v -0.000338 0.004000 -0.000434
v -0.000405 0.004000 -0.000373
v -0.000460 0.004000 -0.000301
v -0.000504 0.004000 -0.000221
v -0.000533 0.004000 -0.000135
v -0.000548 0.004000 -0.000045
v -0.000548 0.004000 0.000045
v -0.000533 0.004000 0.000135
v -0.000504 0.004000 0.000221
v -0.000460 0.004000 0.000301
v -0.000405 0.004000 0.000373
v -0.000338 0.004000 0.000434
v -0.000262 0.004000 0.000484
v -0.000179 0.004000 0.000520
v -0.000091 0.004000 0.000542
v 0.000000 0.004000 0.000550
v 0.000000 0.001400 -0.000550
v 0.000000 0.004000 -0.000550
v 0.000091 0.004000 -0.000542
v 0.000091 0.001400 -0.000542
v 0.000179 0.004000 -0.000520
v 0.000179 0.001400 -0.000520
v 0.000262 0.004000 -0.000484
v 0.000262 0.001400 -0.000484
v 0.000338 0.004000 -0.000434
v 0.000338 0.001400 -0.000434
v 0.000405 0.004000 -0.000373
v 0.000405 0.001400 -0.000373
v 0.000460 0.004000 -0.000301
v 0.000460 0.001400 -0.000301
v 0.000504 0.004000 -0.000221
v 0.000504 0.001400 -0.000221
v 0.000533 0.004000 -0.000135
v 0.000533 0.001400 -0.000135
v 0.000548 0.004000 -0.000045
v 0.000548 0.001400 -0.000045
v 0.000548 0.004000 0.000045
v 0.000548 0.001400 0.000045
v 0.000533 0.004000 0.000135
v 0.000533 0.001400 0.000135
v 0.000504 0.004000 0.000221
v 0.000504 0.001400 0.000221
v 0.000460 0.004000 0.000301
v 0.000460 0.001400 0.000301
v 0.000405 0.004000 0.000373
v 0.000405 0.001400 0.000373
v 0.000338 0.004000 0.000434
v 0.000338 0.001400 0.000434
v 0.000262 0.004000 0.000484
v 0.000262 0.001400 0.000484
v 0.000179 0.004000 0.000520
v 0.000179 0.001400 0.000520
v 0.000091 0.004000 0.000542
v 0.000091 0.001400 0.000542
v 0.000000 0.004000 0.000550
v 0.000000 0.001400 0.000550
v -0.000091 0.004000 0.000542
v -0.000091 0.001400 0.000542
v -0.000179 0.004000 0.000520
v -0.000179 0.001400 0.000520
v -0.000262 0.004000 0.000484
v -0.000262 0.001400 0.000484
v -0.000338 0.004000 0.000434
v -0.000338 0.001400 0.000434
v -0.000405 0.004000 0.000373
v -0.000405 0.001400 0.000373
v -0.000460 0.004000 0.000301
v -0.000460 0.001400 0.000301
v -0.000504 0.004000 0.000221
v -0.000504 0.001400 0.000221
v -0.000533 0.004000 0.000135
v -0.000533 0.001400 0.000135
v -0.000548 0.004000 0.000045
v -0.000548 0.001400 0.000045
v -0.000548 0.004000 -0.000045
v -0.000548 0.001400 -0.000045
v -0.000533 0.004000 -0.000135
v -0.000533 0.001400 -0.000135
v -0.000504 0.004000 -0.000221
v -0.000504 0.001400 -0.000221
v -0.000460 0.004000 -0.000301
v -0.000460 0.001400 -0.000301
v -0.000405 0.004000 -0.000373
v -0.000405 0.001400 -0.000373
v -0.000338 0.004000 -0.000434
v -0.000338 0.001400 -0.000434
v -0.000262 0.004000 -0.000484
v -0.000262 0.001400 -0.000484
v -0.000179 0.004000 -0.000520
v -0.000179 0.001400 -0.000520
v -0.000091 0.004000 -0.000542
v -0.000091 0.001400 -0.000542
v 0.000000 0.001400 0.000000
v -0.000091 0.001400 0.000542
v -0.000179 0.001400 0.000520
v -0.000262 0.001400 0.000484
v -0.000338 0.001400 0.000434
v -0.000405 0.001400 0.000373
v -0.000460 0.001400 0.000301
v -0.000504 0.001400 0.000221
v -0.000533 0.001400 0.000135
v -0.000548 0.001400 0.000045
v -0.000548 0.001400 -0.000045
v -0.000533 0.001400 -0.000135
v -0.000504 0.001400 -0.000221
v -0.000460 0.001400 -0.000301
v -0.000405 0.001400 -0.000373
v -0.000338 0.001400 -0.000434
v -0.000262 0.001400 -0.000484
v -0.000179 0.001400 -0.000520
v -0.000091 0.001400 -0.000542
v 0.000000 0.001400 -0.000550
v 0.000091 0.001400 -0.000542
v 0.000179 0.001400 -0.000520
v 0.000262 0.001400 -0.000484
v 0.000338 0.001400 -0.000434
v 0.000405 0.001400 -0.000373
v 0.000460 0.001400 -0.000301
v 0.000504 0.001400 -0.000221
v 0.000533 0.001400 -0.000135
v 0.000548 0.001400 -0.000045
v 0.000548 0.001400 0.000045
v 0.000533 0.001400 0.000135
v 0.000504 0.001400 0.000221
v 0.000460 0.001400 0.000301
v 0.000405 0.001400 0.000373
v 0.000338 0.001400 0.000434
v 0.000262 0.001400 0.000484
v 0.000179 0.001400 0.000520
v 0.000091 0.001400 0.000542
v 0.000000 0.001400 0.000550
vn 0.000 1.000 0.000
vn 0.000 1.000 0.000
vn 0.000 1.000 0.000
vn 0.000 1.000 0.000
vn 0.000 1.000 0.000
vn 0.000 1.000 0.000
vn 0.000 1.000 0.000
vn 0.000 1.000 0.000
vn 0.000 1.000 0.000
vn 0.000 1.000 0.000
vn 0.000 1.000 0.000
vn 0.000 1.000 0.000
vn 0.000 1.000 0.000
vn 0.000 1.000 0.000
vn 0.000 1.000 0.000
vn 0.000 1.000 0.000
vn 0.000 1.000 0.000
vn 0.000 1.000 0.000
vn 0.000 1.000 0.000
vn 0.000 1.000 0.000
vn 0.000 1.000 0.000
vn 0.000 1.000 0.000
vn 0.000 1.000 0.000
vn 0.000 1.000 0.000
vn 0.000 1.000 0.000
vn 0.000 1.000 0.000
vn 0.000 1.000 0.000
vn 0.000 1.000 0.000
vn 0.000 1.000 0.000
vn 0.000 1.000 0.000
vn 0.000 1.000 0.000
vn 0.000 1.000 0.000
vn 0.000 1.000 0.000
vn 0.000 1.000 0.000
vn 0.000 1.000 0.000
vn 0.000 1.000 0.000
vn 0.000 1.000 0.000
vn 0.000 1.000 0.000
vn 0.000 1.000 0.000
vn 0.000 0.000 -1.000
vn 0.000 0.000 -1.000
vn 0.165 0.000 -0.986
vn 0.165 0.000 -0.986
vn 0.325 0.000 -0.946
vn 0.325 0.000 -0.946
vn 0.476 0.000 -0.879
vn 0.476 0.000 -0.879
vn 0.614 0.000 -0.789
vn 0.614 0.000 -0.789
vn 0.736 0.000 -0.677
vn 0.736 0.000 -0.677
vn 0.837 0.000 -0.547
vn 0.837 0.000 -0.547
vn 0.916 0.000 -0.402
vn 0.916 0.000 -0.402
vn 0.969 0.000 -0.245
vn 0.969 0.000 -0.245
vn 0.997 0.000 -0.083
vn 0.997 0.000 -0.083
vn 0.997 0.000 0.083
vn 0.997 0.000 0.083
vn 0.969 0.000 0.245
vn 0.969 0.000 0.245
vn 0.916 0.000 0.402
vn 0.916 0.000 0.402
vn 0.837 0.000 0.547
vn 0.837 0.000 0.547
vn 0.736 0.000 0.677
vn 0.736 0.000 0.677
vn 0.614 0.000 0.789
vn 0.614 0.000 0.789
vn 0.476 0.000 0.879
vn 0.476 0.000 0.879
vn 0.325 0.000 0.946
vn 0.325 0.000 0.946
vn 0.165 0.000 0.986
vn 0.165 0.000 0.986
vn 0.000 0.000 1.000
vn 0.000 0.000 1.000
vn -0.165 0.000 0.986
vn -0.165 0.000 0.986
vn -0.325 0.000 0.946
vn -0.325 0.000 0.946
vn -0.476 0.000 0.879
vn -0.476 0.000 0.879
vn -0.614 0.000 0.789
vn -0.614 0.000 0.789
vn -0.736 0.000 0.677
vn -0.736 0.000 0.677
vn -0.837 0.000 0.547
vn -0.837 0.000 0.547
vn -0.916 0.000 0.402
vn -0.916 0.000 0.402
vn -0.969 0.000 0.245
vn -0.969 0.000 0.245
vn -0.997 0.000 0.083
vn -0.997 0.000 0.083
vn -0.997 0.000 -0.083
vn -0.997 0.000 -0.083
vn -0.969 0.000 -0.245
vn -0.969 0.000 -0.245
vn -0.916 0.000 -0.402
vn -0.916 0.000 -0.402
vn -0.837 0.000 -0.547
vn -0.837 0.000 -0.547
vn -0.736 0.000 -0.677
vn -0.736 0.000 -0.677
vn -0.614 0.000 -0.789
vn -0.614 0.000 -0.789
vn -0.476 0.000 -0.879
vn -0.476 0.000 -0.879
vn -0.325 0.000 -0.946
vn -0.325 0.000 -0.946
vn -0.165 0.000 -0.986
vn -0.165 0.000 -0.986
vn 0.000 -1.000 0.000
vn 0.000 -1.000 0.000
vn 0.000 -1.000 0.000
vn 0.000 -1.000 0.000
vn 0.000 -1.000 0.000
vn 0.000 -1.000 0.000
vn 0.000 -1.000 0.000
vn 0.000 -1.000 0.000
vn 0.000 -1.000 0.000
vn 0.000 -1.000 0.000
vn 0.000 -1.000 0.000
vn 0.000 -1.000 0.000
vn 0.000 -1.000 0.000
vn 0.000 -1.000 0.000
vn 0.000 -1.000 0.000
vn 0.000 -1.000 0.000
vn 0.000 -1.000 0.000
vn 0.000 -1.000 0.000
vn 0.000 -1.000 0.000
vn 0.000 -1.000 0.000
vn 0.000 -1.000 0.000
vn 0.000 -1.000 0.000
vn 0.000 -1.000 0.000
vn 0.000 -1.000 0.000
vn 0.000 -1.000 0.000
vn 0.000 -1.000 0.000
vn 0.000 -1.000 0.000
vn 0.000 -1.000 0.000
vn 0.000 -1.000 0.000
vn 0.000 -1.000 0.000
vn 0.000 -1.000 0.000
vn 0.000 -1.000 0.000
vn 0.000 -1.000 0.000
vn 0.000 -1.000 0.000
vn 0.000 -1.000 0.000
vn 0.000 -1.000 0.000
vn 0.000 -1.000 0.000
vn 0.000 -1.000 0.000
vn 0.000 -1.000 0.000
vt 0.0000 0.0000 0
vt 0.0001 -0.0005 0
vt 0.0002 -0.0005 0
vt 0.0003 -0.0005 0
vt 0.0003 -0.0004 0
vt 0.0004 -0.0004 0
vt 0.0005 -0.0003 0
vt 0.0005 -0.0002 0
vt 0.0005 -0.0001 0
vt 0.0005 0.0000 0
vt 0.0005 0.0000 0
vt 0.0005 0.0001 0
vt 0.0005 0.0002 0
vt 0.0005 0.0003 0
vt 0.0004 0.0004 0
vt 0.0003 0.0004 0
vt 0.0003 0.0005 0
vt 0.0002 0.0005 0
vt 0.0001 0.0005 0
vt 0.0000 0.0006 0
vt -0.0001 0.0005 0
vt -0.0002 0.0005 0
vt -0.0003 0.0005 0
vt -0.0003 0.0004 0
vt -0.0004 0.0004 0
vt -0.0005 0.0003 0
vt -0.0005 0.0002 0
vt -0.0005 0.0001 0
vt -0.0005 0.0000 0
vt -0.0005 0.0000 0
vt -0.0005 -0.0001 0
vt -0.0005 -0.0002 0
vt -0.0005 -0.0003 0
vt -0.0004 -0.0004 0
vt -0.0003 -0.0004 0
vt -0.0003 -0.0005 0
vt -0.0002 -0.0005 0
vt -0.0001 -0.0005 0
vt 0.0000 -0.0006 0
vt 0.0000 0.0026 0
vt 0.0000 0.0000 0
vt 0.1653 0.0000 0
vt 0.1653 0.0026 0
vt 0.3307 0.0000 0
vt 0.3307 0.0026 0
vt 0.4960 0.0000 0
vt 0.4960 0.0026 0
vt 0.6614 0.0000 0
vt 0.6614 0.0026 0
vt 0.8267 0.0000 0
vt 0.8267 0.0026 0
vt 0.9921 0.0000 0
vt 0.9921 0.0026 0
vt 1.1574 0.0000 0
vt 1.1574 0.0026 0
vt 1.3228 0.0000 0
vt 1.3228 0.0026 0
vt 1.4881 0.0000 0
vt 1.4881 0.0026 0
vt 1.6535 0.0000 0
vt 1.6535 0.0026 0
vt 1.8188 0.0000 0
vt 1.8188 0.0026 0
vt 1.9842 0.0000 0
vt 1.9842 0.0026 0
vt 2.1495 0.0000 0
vt 2.1495 0.0026 0
vt 2.3149 0.0000 0
vt 2.3149 0.0026 0
vt 2.4802 0.0000 0
vt 2.4802 0.0026 0
vt 2.6456 0.0000 0
vt 2.6456 0.0026 0
vt 2.8109 0.0000 0
vt 2.8109 0.0026 0
vt 2.9762 0.0000 0
vt 2.9762 0.0026 0
vt 3.1416 0.0000 0
vt 3.1416 0.0026 0
vt 3.3069 0.0000 0
vt 3.3069 0.0026 0
vt 3.4723 0.0000 0
vt 3.4723 0.0026 0
vt 3.6376 0.0000 0
vt 3.6376 0.0026 0
vt 3.8030 0.0000 0
vt 3.8030 0.0026 0
vt 3.9683 0.0000 0
vt 3.9683 0.0026 0
vt 4.1337 0.0000 0
vt 4.1337 0.0026 0
vt 4.2990 0.0000 0
vt 4.2990 0.0026 0
vt 4.4644 0.0000 0
vt 4.4644 0.0026 0
vt 4.6297 0.0000 0
vt 4.6297 0.0026 0
vt 4.7951 0.0000 0
vt 4.7951 0.0026 0
vt 4.9604 0.0000 0
vt 4.9604 0.0026 0
vt 5.1258 0.0000 0
vt 5.1258 0.0026 0
vt 5.2911 0.0000 0
vt 5.2911 0.0026 0
vt 5.4565 0.0000 0
vt 5.4565 0.0026 0
vt 5.6218 0.0000 0
vt 5.6218 0.0026 0
vt 5.7871 0.0000 0
vt 5.7871 0.0026 0
vt 5.9525 0.0000 0
vt 5.9525 0.0026 0
vt 6.1178 0.0000 0
vt 6.1178 0.0026 0
vt 0.0039 -0.0200 0
vt 0.0040 -0.0205 0
vt 0.0041 -0.0205 0
vt 0.0042 -0.0205 0
vt 0.0043 -0.0204 0
vt 0.0043 -0.0204 0
vt 0.0044 -0.0203 0
vt 0.0044 -0.0202 0
vt 0.0045 -0.0201 0
vt 0.0045 -0.0200 0
vt 0.0045 -0.0200 0
vt 0.0045 -0.0199 0
vt 0.0044 -0.0198 0
vt 0.0044 -0.0197 0
vt 0.0043 -0.0196 0
vt 0.0043 -0.0196 0
vt 0.0042 -0.0195 0
vt 0.0041 -0.0195 0
vt 0.0040 -0.0195 0
vt 0.0039 -0.0195 0
vt 0.0038 -0.0195 0
vt 0.0038 -0.0195 0
vt 0.0037 -0.0195 0
vt 0.0036 -0.0196 0
vt 0.0035 -0.0196 0
vt 0.0035 -0.0197 0
vt 0.0034 -0.0198 0
vt 0.0034 -0.0199 0
vt 0.0034 -0.0200 0
vt 0.0034 -0.0200 0
vt 0.0034 -0.0201 0
vt 0.0034 -0.0202 0
vt 0.0035 -0.0203 0
vt 0.0035 -0.0204 0
vt 0.0036 -0.0204 0
vt 0.0037 -0.0205 0
vt 0.0038 -0.0205 0
vt 0.0038 -0.0205 0
vt 0.0039 -0.0206 0
f 3/3/3 1/1/1 2/2/2
f 1/1/1 3/3/3 4/4/4
f 1/1/1 4/4/4 5/5/5
f 1/1/1 5/5/5 6/6/6
f 1/1/1 6/6/6 7/7/7
f 1/1/1 7/7/7 8/8/8
f 1/1/1 8/8/8 9/9/9
f 1/1/1 9/9/9 10/10/10
f 1/1/1 10/10/10 11/11/11
f 1/1/1 11/11/11 12/12/12
f 1/1/1 12/12/12 13/13/13
f 1/1/1 13/13/13 14/14/14
f 1/1/1 14/14/14 15/15/15
f 1/1/1 15/15/15 16/16/16
f 1/1/1 16/16/16 17/17/17
f 1/1/1 17/17/17 18/18/18
f 1/1/1 18/18/18 19/19/19
f 1/1/1 19/19/19 20/20/20
f 1/1/1 20/20/20 21/21/21
f 1/1/1 21/21/21 22/22/22
f 1/1/1 22/22/22 23/23/23
f 1/1/1 23/23/23 24/24/24
f 1/1/1 24/24/24 25/25/25
f 1/1/1 25/25/25 26/26/26
f 1/1/1 26/26/26 27/27/27
f 1/1/1 27/27/27 28/28/28
f 1/1/1 28/28/28 29/29/29
f 1/1/1 29/29/29 30/30/30
f 1/1/1 30/30/30 31/31/31
f 1/1/1 31/31/31 32/32/32
f 1/1/1 32/32/32 33/33/33
f 1/1/1 33/33/33 34/34/34
f 1/1/1 34/34/34 35/35/35
f 1/1/1 35/35/35 36/36/36
f 1/1/1 36/36/36 37/37/37
f 1/1/1 37/37/37 38/38/38
f 1/1/1 38/38/38 39/39/39
f 1/1/1 39/39/39 2/2/2
f 42/42/42 40/40/40 41/41/41
f 44/44/44 43/43/43 42/42/42
f 46/46/46 45/45/45 44/44/44
f 48/48/48 47/47/47 46/46/46
f 50/50/50 49/49/49 48/48/48
f 52/52/52 51/51/51 50/50/50
f 54/54/54 53/53/53 52/52/52
f 56/56/56 55/55/55 54/54/54
f 58/58/58 57/57/57 56/56/56
f 60/60/60 59/59/59 58/58/58
f 62/62/62 61/61/61 60/60/60
f 64/64/64 63/63/63 62/62/62
f 66/66/66 65/65/65 64/64/64
f 68/68/68 67/67/67 66/66/66
f 70/70/70 69/69/69 68/68/68
f 72/72/72 71/71/71 70/70/70
f 74/74/74 73/73/73 72/72/72
f 76/76/76 75/75/75 74/74/74
f 78/78/78 77/77/77 76/76/76
f 80/80/80 79/79/79 78/78/78
f 82/82/82 81/81/81 80/80/80
f 84/84/84 83/83/83 82/82/82
f 86/86/86 85/85/85 84/84/84
f 88/88/88 87/87/87 86/86/86
f 90/90/90 89/89/89 88/88/88
f 92/92/92 91/91/91 90/90/90
f 94/94/94 93/93/93 92/92/92
f 96/96/96 95/95/95 94/94/94
f 98/98/98 97/97/97 96/96/96
f 100/100/100 99/99/99 98/98/98
f 102/102/102 101/101/101 100/100/100
f 104/104/104 103/103/103 102/102/102
f 106/106/106 105/105/105 104/104/104
f 108/108/108 107/107/107 106/106/106
f 110/110/110 109/109/109 108/108/108
f 112/112/112 111/111/111 110/110/110
f 114/114/114 113/113/113 112/112/112
f 41/41/41 115/115/115 114/114/114
f 115/115/115 41/41/41 40/40/40
f 113/113/113 114/114/114 115/115/115
f 111/111/111 112/112/112 113/113/113
f 109/109/109 110/110/110 111/111/111
f 107/107/107 108/108/108 109/109/109
f 105/105/105 106/106/106 107/107/107
f 103/103/103 104/104/104 105/105/105
f 101/101/101 102/102/102 103/103/103
f 99/99/99 100/100/100 101/101/101
f 97/97/97 98/98/98 99/99/99
f 95/95/95 96/96/96 97/97/97
f 93/93/93 94/94/94 95/95/95
f 91/91/91 92/92/92 93/93/93
f 89/89/89 90/90/90 91/91/91
f 87/87/87 88/88/88 89/89/89
f 85/85/85 86/86/86 87/87/87
f 83/83/83 84/84/84 85/85/85
f 81/81/81 82/82/82 83/83/83
f 79/79/79 80/80/80 81/81/81
f 77/77/77 78/78/78 79/79/79
f 75/75/75 76/76/76 77/77/77
f 73/73/73 74/74/74 75/75/75
f 71/71/71 72/72/72 73/73/73
f 69/69/69 70/70/70 71/71/71
f 67/67/67 68/68/68 69/69/69
f 65/65/65 66/66/66 67/67/67
f 63/63/63 64/64/64 65/65/65
f 61/61/61 62/62/62 63/63/63
f 59/59/59 60/60/60 61/61/61
f 57/57/57 58/58/58 59/59/59
f 55/55/55 56/56/56 57/57/57
f 53/53/53 54/54/54 55/55/55
f 51/51/51 52/52/52 53/53/53
f 49/49/49 50/50/50 51/51/51
f 47/47/47 48/48/48 49/49/49
f 45/45/45 46/46/46 47/47/47
f 43/43/43 44/44/44 45/45/45
f 40/40/40 42/42/42 43/43/43
f 118/118/118 116/116/116 117/117/117
f 116/116/116 118/118/118 119/119/119
f 116/116/116 119/119/119 120/120/120
f 116/116/116 120/120/120 121/121/121
f 116/116/116 121/121/121 122/122/122
f 116/116/116 122/122/122 123/123/123
f 116/116/116 123/123/123 124/124/124
f 116/116/116 124/124/124 125/125/125
f 116/116/116 125/125/125 126/126/126
f 116/116/116 126/126/126 127/127/127
f 116/116/116 127/127/127 128/128/128
f 116/116/116 128/128/128 129/129/129
f 116/116/116 129/129/129 130/130/130
f 116/116/116 130/130/130 131/131/131
f 116/116/116 131/131/131 132/132/132
f 116/116/116 132/132/132 133/133/133
f 116/116/116 133/133/133 134/134/134
f 116/116/116 134/134/134 135/135/135
f 116/116/116 135/135/135 136/136/136
f 116/116/116 136/136/136 137/137/137
f 116/116/116 137/137/137 138/138/138
f 116/116/116 138/138/138 139/139/139
f 116/116/116 139/139/139 140/140/140
f 116/116/116 140/140/140 141/141/141
f 116/116/116 141/141/141 142/142/142
f 116/116/116 142/142/142 143/143/143
f 116/116/116 143/143/143 144/144/144
f 116/116/116 144/144/144 145/145/145
f 116/116/116 145/145/145 146/146/146
f 116/116/116 146/146/146 147/147/147
f 116/116/116 147/147/147 148/148/148
f 116/116/116 148/148/148 149/149/149
f 116/116/116 149/149/149 150/150/150
f 116/116/116 150/150/150 151/151/151
f 116/116/116 151/151/151 152/152/152
f 116/116/116 152/152/152 153/153/153
f 116/116/116 153/153/153 154/154/154
f 116/116/116 154/154/154 117/117/117
