# Wavefront .OBJ file for tesselated shape: Torso.step-1/Body.step-1/Raspberry Pi Zero 2 W.step-1/SMD Capacitor, Configurable, Raspberry Pi Zero 2 W_C1.step-1 path: C:\Users\matta\AppData\Local\Temp\swx18596\IC~~\SMD Capacitor, Configurable, Raspberry Pi Zero 2 W_C1.step.SLDPRT

g body_1
v -0.000600 -0.007500 -0.006900
v -0.000600 -0.007900 -0.006900
v -0.000600 -0.007900 -0.006450
v -0.000600 -0.007500 -0.006450
v -0.000600 -0.007900 -0.006900
v 0.000600 -0.007900 -0.006900
v 0.000600 -0.007900 -0.006450
v -0.000600 -0.007900 -0.006450
v 0.000600 -0.007900 -0.006900
v 0.000600 -0.007500 -0.006900
v 0.000600 -0.007500 -0.006450
v 0.000600 -0.007900 -0.006450
v 0.000600 -0.007500 -0.006900
v -0.000600 -0.007500 -0.006900
v -0.000600 -0.007500 -0.006450
v 0.000600 -0.007500 -0.006450
v 0.000600 -0.007900 -0.006900
v -0.000600 -0.007900 -0.006900
v -0.000600 -0.007500 -0.006900
v 0.000600 -0.007500 -0.006900
v 0.000600 -0.007500 -0.006450
v -0.000600 -0.007500 -0.006450
v -0.000600 -0.007900 -0.006450
v 0.000600 -0.007900 -0.006450
vn -1.000 0.000 0.000
vn -1.000 0.000 0.000
vn -1.000 0.000 0.000
vn -1.000 0.000 0.000
vn 0.000 -1.000 0.000
vn 0.000 -1.000 0.000
vn 0.000 -1.000 0.000
vn 0.000 -1.000 0.000
vn 1.000 0.000 0.000
vn 1.000 0.000 0.000
vn 1.000 0.000 0.000
vn 1.000 0.000 0.000
vn 0.000 1.000 0.000
vn 0.000 1.000 0.000
vn 0.000 1.000 0.000
vn 0.000 1.000 0.000
vn 0.000 0.000 -1.000
vn 0.000 0.000 -1.000
vn 0.000 0.000 -1.000
vn 0.000 0.000 -1.000
vn 0.000 0.000 1.000
vn 0.000 0.000 1.000
vn 0.000 0.000 1.000
vn 0.000 0.000 1.000
vt -0.0017 0.0004 0
vt -0.0017 0.0000 0
vt -0.0013 0.0000 0
vt -0.0013 0.0004 0
vt 0.0017 0.0000 0
vt 0.0017 0.0012 0
vt 0.0013 0.0012 0
vt 0.0013 0.0000 0
vt 0.0000 0.0017 0
vt -0.0004 0.0017 0
vt -0.0004 0.0013 0
vt 0.0000 0.0013 0
vt 0.0017 -0.0012 0
vt 0.0017 0.0000 0
vt 0.0013 0.0000 0
vt 0.0013 -0.0012 0
vt -0.0006 0.0006 0
vt 0.0006 0.0006 0
vt 0.0006 0.0010 0
vt -0.0006 0.0010 0
vt -0.0010 0.0006 0
vt -0.0010 -0.0006 0
vt -0.0006 -0.0006 0
vt -0.0006 0.0006 0
f 3/3/3 1/1/1 2/2/2
f 1/1/1 3/3/3 4/4/4
f 7/7/7 5/5/5 6/6/6
f 5/5/5 7/7/7 8/8/8
f 9/9/9 11/11/11 12/12/12
f 11/11/11 9/9/9 10/10/10
f 13/13/13 15/15/15 16/16/16
f 15/15/15 13/13/13 14/14/14
f 19/19/19 17/17/17 18/18/18
f 17/17/17 19/19/19 20/20/20
f 21/21/21 23/23/23 24/24/24
f 23/23/23 21/21/21 22/22/22
g body_2
v -0.000600 -0.009100 -0.006900
v -0.000600 -0.009500 -0.006900
v -0.000600 -0.009500 -0.006450
v -0.000600 -0.009100 -0.006450
v -0.000600 -0.009500 -0.006900
v 0.000600 -0.009500 -0.006900
v 0.000600 -0.009500 -0.006450
v -0.000600 -0.009500 -0.006450
v 0.000600 -0.009500 -0.006900
v 0.000600 -0.009100 -0.006900
v 0.000600 -0.009100 -0.006450
v 0.000600 -0.009500 -0.006450
v 0.000600 -0.009100 -0.006900
v -0.000600 -0.009100 -0.006900
v -0.000600 -0.009100 -0.006450
v 0.000600 -0.009100 -0.006450
v 0.000600 -0.009500 -0.006900
v -0.000600 -0.009500 -0.006900
v -0.000600 -0.009100 -0.006900
v 0.000600 -0.009100 -0.006900
v 0.000600 -0.009100 -0.006450
v -0.000600 -0.009100 -0.006450
v -0.000600 -0.009500 -0.006450
v 0.000600 -0.009500 -0.006450
vn -1.000 0.000 0.000
vn -1.000 0.000 0.000
vn -1.000 0.000 0.000
vn -1.000 0.000 0.000
vn 0.000 -1.000 0.000
vn 0.000 -1.000 0.000
vn 0.000 -1.000 0.000
vn 0.000 -1.000 0.000
vn 1.000 0.000 0.000
vn 1.000 0.000 0.000
vn 1.000 0.000 0.000
vn 1.000 0.000 0.000
vn 0.000 1.000 0.000
vn 0.000 1.000 0.000
vn 0.000 1.000 0.000
vn 0.000 1.000 0.000
vn 0.000 0.000 -1.000
vn 0.000 0.000 -1.000
vn 0.000 0.000 -1.000
vn 0.000 0.000 -1.000
vn 0.000 0.000 1.000
vn 0.000 0.000 1.000
vn 0.000 0.000 1.000
vn 0.000 0.000 1.000
vt -0.0017 0.0000 0
vt -0.0017 -0.0004 0
vt -0.0013 -0.0004 0
vt -0.0013 0.0000 0
vt 0.0017 0.0000 0
vt 0.0017 0.0012 0
vt 0.0013 0.0012 0
vt 0.0013 0.0000 0
vt -0.0004 -0.0017 0
vt 0.0000 -0.0017 0
vt 0.0000 -0.0013 0
vt -0.0004 -0.0013 0
vt 0.0017 -0.0012 0
vt 0.0017 0.0000 0
vt 0.0013 0.0000 0
vt 0.0013 -0.0012 0
vt 0.0010 0.0006 0
vt 0.0010 -0.0006 0
vt 0.0006 -0.0006 0
vt 0.0006 0.0006 0
vt 0.0006 0.0006 0
vt 0.0006 -0.0006 0
vt 0.0010 -0.0006 0
vt 0.0010 0.0006 0
f 27/27/27 25/25/25 26/26/26
f 25/25/25 27/27/27 28/28/28
f 29/29/29 31/31/31 32/32/32
f 31/31/31 29/29/29 30/30/30
f 33/33/33 35/35/35 36/36/36
f 35/35/35 33/33/33 34/34/34
f 37/37/37 39/39/39 40/40/40
f 39/39/39 37/37/37 38/38/38
f 41/41/41 43/43/43 44/44/44
f 43/43/43 41/41/41 42/42/42
f 45/45/45 47/47/47 48/48/48
f 47/47/47 45/45/45 46/46/46
g body_3
v -0.000600 -0.007900 -0.006900
v 0.000600 -0.007900 -0.006900
v 0.000600 -0.009100 -0.006900
v -0.000600 -0.009100 -0.006900
v -0.000600 -0.009100 -0.006450
v -0.000600 -0.009100 -0.006900
v 0.000600 -0.009100 -0.006900
v 0.000600 -0.009100 -0.006450
v -0.000600 -0.009100 -0.006450
v 0.000600 -0.009100 -0.006450
v 0.000600 -0.007900 -0.006450
v -0.000600 -0.007900 -0.006450
v -0.000600 -0.007900 -0.006450
v -0.000600 -0.007900 -0.006900
v -0.000600 -0.009100 -0.006900
v -0.000600 -0.009100 -0.006450
v 0.000600 -0.007900 -0.006450
v 0.000600 -0.007900 -0.006900
v -0.000600 -0.007900 -0.006900
v -0.000600 -0.007900 -0.006450
v 0.000600 -0.009100 -0.006450
v 0.000600 -0.009100 -0.006900
v 0.000600 -0.007900 -0.006900
v 0.000600 -0.007900 -0.006450
vn 0.000 0.000 -1.000
vn 0.000 0.000 -1.000
vn 0.000 0.000 -1.000
vn 0.000 0.000 -1.000
vn 0.000 -1.000 0.000
vn 0.000 -1.000 0.000
vn 0.000 -1.000 0.000
vn 0.000 -1.000 0.000
vn 0.000 0.000 1.000
vn 0.000 0.000 1.000
vn 0.000 0.000 1.000
vn 0.000 0.000 1.000
vn -1.000 0.000 0.000
vn -1.000 0.000 0.000
vn -1.000 0.000 0.000
vn -1.000 0.000 0.000
vn 0.000 1.000 0.000
vn 0.000 1.000 0.000
vn 0.000 1.000 0.000
vn 0.000 1.000 0.000
vn 1.000 0.000 0.000
vn 1.000 0.000 0.000
vn 1.000 0.000 0.000
vn 1.000 0.000 0.000
vt -0.0006 -0.0006 0
vt -0.0006 0.0006 0
vt 0.0006 0.0006 0
vt 0.0006 -0.0006 0
vt 0.0000 0.0000 0
vt 0.0005 0.0000 0
vt 0.0005 -0.0012 0
vt 0.0000 -0.0012 0
vt 0.0006 -0.0006 0
vt 0.0006 0.0006 0
vt -0.0006 0.0006 0
vt -0.0006 -0.0006 0
vt 0.0000 0.0000 0
vt 0.0000 -0.0005 0
vt -0.0012 -0.0005 0
vt -0.0012 0.0000 0
vt 0.0000 0.0012 0
vt 0.0005 0.0012 0
vt 0.0005 0.0000 0
vt 0.0000 0.0000 0
vt -0.0012 0.0000 0
vt -0.0012 0.0005 0
vt 0.0000 0.0005 0
vt 0.0000 0.0000 0
f 49/49/49 51/51/51 52/52/52
f 51/51/51 49/49/49 50/50/50
f 59/59/59 57/57/57 58/58/58
f 57/57/57 59/59/59 60/60/60
f 55/55/55 53/53/53 54/54/54
f 53/53/53 55/55/55 56/56/56
f 63/63/63 61/61/61 62/62/62
f 61/61/61 63/63/63 64/64/64
f 67/67/67 65/65/65 66/66/66
f 65/65/65 67/67/67 68/68/68
f 71/71/71 69/69/69 70/70/70
f 69/69/69 71/71/71 72/72/72
