# Wavefront .OBJ file for tesselated shape: Torso.step-1/LED_3.step-1/Anode.step-1 path: C:\Users\matta\AppData\Local\Temp\swx18596\IC~~\Anode.step.SLDPRT

g body_1
v 0.000500 -0.000500 -0.012000
v 0.000500 0.000000 -0.012000
v 0.000500 0.000000 -0.001000
v 0.000500 -0.000500 -0.001000
v 0.000000 -0.000500 -0.012000
v 0.000000 0.000000 -0.012000
v 0.000500 0.000000 -0.012000
v 0.000500 -0.000500 -0.012000
v 0.000000 -0.000500 0.000000
v 0.000000 0.000000 0.000000
v 0.000000 0.000000 -0.012000
v 0.000000 -0.000500 -0.012000
v 0.000800 -0.000500 0.000000
v 0.000800 0.000000 0.000000
v 0.000000 0.000000 0.000000
v 0.000000 -0.000500 0.000000
v 0.000500 0.000000 -0.001000
v 0.000000 0.000000 0.000000
v 0.000800 0.000000 -0.000300
v 0.000000 0.000000 -0.012000
v 0.000800 0.000000 0.000000
v 0.001500 0.000000 -0.001000
v 0.000500 0.000000 -0.012000
v 0.000500 -0.000500 -0.001000
v 0.001500 -0.000500 -0.001000
v 0.000800 -0.000500 -0.000300
v 0.000000 -0.000500 0.000000
v 0.000000 -0.000500 -0.012000
v 0.000500 -0.000500 -0.012000
v 0.000800 -0.000500 0.000000
v 0.000800 -0.000500 -0.000300
v 0.000800 0.000000 -0.000300
v 0.000800 0.000000 0.000000
v 0.000800 -0.000500 0.000000
v 0.001500 -0.000500 -0.001000
v 0.001500 0.000000 -0.001000
v 0.000800 0.000000 -0.000300
v 0.000800 -0.000500 -0.000300
v 0.000500 -0.000500 -0.001000
v 0.000500 0.000000 -0.001000
v 0.001500 0.000000 -0.001000
v 0.001500 -0.000500 -0.001000
vn 1.000 0.000 0.000
vn 1.000 0.000 0.000
vn 1.000 0.000 0.000
vn 1.000 0.000 0.000
vn 0.000 0.000 -1.000
vn 0.000 0.000 -1.000
vn 0.000 0.000 -1.000
vn 0.000 0.000 -1.000
vn -1.000 0.000 0.000
vn -1.000 0.000 0.000
vn -1.000 0.000 0.000
vn -1.000 0.000 0.000
vn 0.000 0.000 1.000
vn 0.000 0.000 1.000
vn 0.000 0.000 1.000
vn 0.000 0.000 1.000
vn 0.000 1.000 0.000
vn 0.000 1.000 0.000
vn 0.000 1.000 0.000
vn 0.000 1.000 0.000
vn 0.000 1.000 0.000
vn 0.000 1.000 0.000
vn 0.000 1.000 0.000
vn 0.000 -1.000 0.000
vn 0.000 -1.000 0.000
vn 0.000 -1.000 0.000
vn 0.000 -1.000 0.000
vn 0.000 -1.000 0.000
vn 0.000 -1.000 0.000
vn 0.000 -1.000 0.000
vn 1.000 0.000 0.000
vn 1.000 0.000 0.000
vn 1.000 0.000 0.000
vn 1.000 0.000 0.000
vn 0.707 0.000 0.707
vn 0.707 0.000 0.707
vn 0.707 0.000 0.707
vn 0.707 0.000 0.707
vn 0.000 0.000 -1.000
vn 0.000 0.000 -1.000
vn 0.000 0.000 -1.000
vn 0.000 0.000 -1.000
vt 0.0000 0.0000 0
vt 0.0005 0.0000 0
vt 0.0005 -0.0110 0
vt 0.0000 -0.0110 0
vt 0.0000 0.0000 0
vt 0.0000 0.0005 0
vt 0.0005 0.0005 0
vt 0.0005 0.0000 0
vt 0.0000 0.0000 0
vt 0.0005 0.0000 0
vt 0.0005 -0.0120 0
vt 0.0000 -0.0120 0
vt 0.0000 -0.0003 0
vt -0.0005 -0.0003 0
vt -0.0005 0.0005 0
vt 0.0000 0.0005 0
vt 0.0010 0.0005 0
vt 0.0000 0.0000 0
vt 0.0003 0.0008 0
vt 0.0120 0.0000 0
vt 0.0000 0.0008 0
vt 0.0010 0.0015 0
vt 0.0120 0.0005 0
vt 0.0010 0.0005 0
vt 0.0010 0.0015 0
vt 0.0003 0.0008 0
vt 0.0000 0.0000 0
vt 0.0120 0.0000 0
vt 0.0120 0.0005 0
vt 0.0000 0.0008 0
vt -0.0003 0.0000 0
vt -0.0003 0.0005 0
vt 0.0000 0.0005 0
vt 0.0000 0.0000 0
vt 0.0000 0.0000 0
vt 0.0000 0.0005 0
vt 0.0010 0.0005 0
vt 0.0010 0.0000 0
vt -0.0010 0.0000 0
vt -0.0010 0.0005 0
vt 0.0000 0.0005 0
vt 0.0000 0.0000 0
f 17/17/17 19/19/19 22/22/22
f 19/19/19 18/18/18 21/21/21
f 17/17/17 20/20/20 18/18/18
f 19/19/19 17/17/17 18/18/18
f 20/20/20 17/17/17 23/23/23
f 24/24/24 28/28/28 29/29/29
f 28/28/28 24/24/24 27/27/27
f 27/27/27 26/26/26 30/30/30
f 26/26/26 24/24/24 25/25/25
f 24/24/24 26/26/26 27/27/27
f 3/3/3 1/1/1 2/2/2
f 1/1/1 3/3/3 4/4/4
f 7/7/7 5/5/5 6/6/6
f 5/5/5 7/7/7 8/8/8
f 11/11/11 9/9/9 10/10/10
f 9/9/9 11/11/11 12/12/12
f 13/13/13 15/15/15 16/16/16
f 15/15/15 13/13/13 14/14/14
f 31/31/31 33/33/33 34/34/34
f 33/33/33 31/31/31 32/32/32
f 35/35/35 37/37/37 38/38/38
f 37/37/37 35/35/35 36/36/36
f 41/41/41 39/39/39 40/40/40
f 39/39/39 41/41/41 42/42/42
