# Wavefront .OBJ file for tesselated shape: Torso.step-1/Body.step-1/OLED Display (64x48).step-1/OLED Display (64x48)-3.step-1 path: C:\Users\matta\AppData\Local\Temp\swx18596\IC~~\OLED Display (64x48)-3.step.SLDPRT

g body_1
v 0.012300 0.008400 0.001100
v 0.012300 -0.008100 0.001100
v -0.012300 -0.008100 0.001100
v -0.012300 0.008400 0.001100
v -0.012300 -0.008100 0.003000
v -0.012300 -0.008100 0.001100
v 0.012300 -0.008100 0.001100
v 0.012300 -0.008100 0.003000
v -0.012300 0.008400 0.003000
v -0.012300 -0.008100 0.003000
v 0.012300 -0.008100 0.003000
v 0.012300 0.008400 0.003000
v 0.012300 -0.008100 0.003000
v 0.012300 -0.008100 0.001100
v 0.012300 0.008400 0.001100
v 0.012300 0.008400 0.003000
v 0.012300 0.008400 0.003000
v 0.012300 0.008400 0.001100
v -0.012300 0.008400 0.001100
v -0.012300 0.008400 0.003000
v -0.012300 0.008400 0.003000
v -0.012300 0.008400 0.001100
v -0.012300 -0.008100 0.001100
v -0.012300 -0.008100 0.003000
vn 0.000 0.000 -1.000
vn 0.000 0.000 -1.000
vn 0.000 0.000 -1.000
vn 0.000 0.000 -1.000
vn 0.000 -1.000 0.000
vn 0.000 -1.000 0.000
vn 0.000 -1.000 0.000
vn 0.000 -1.000 0.000
vn 0.000 0.000 1.000
vn 0.000 0.000 1.000
vn 0.000 0.000 1.000
vn 0.000 0.000 1.000
vn 1.000 0.000 0.000
vn 1.000 0.000 0.000
vn 1.000 0.000 0.000
vn 1.000 0.000 0.000
vn 0.000 1.000 0.000
vn 0.000 1.000 0.000
vn 0.000 1.000 0.000
vn 0.000 1.000 0.000
vn -1.000 0.000 0.000
vn -1.000 0.000 0.000
vn -1.000 0.000 0.000
vn -1.000 0.000 0.000
vt 0.0123 0.0083 0
vt 0.0123 -0.0083 0
vt -0.0123 -0.0083 0
vt -0.0123 0.0083 0
vt -0.0019 0.0000 0
vt 0.0000 0.0000 0
vt 0.0000 0.0246 0
vt -0.0019 0.0246 0
vt -0.0123 0.0083 0
vt -0.0123 -0.0083 0
vt 0.0123 -0.0083 0
vt 0.0123 0.0083 0
vt 0.0000 0.0019 0
vt 0.0000 0.0000 0
vt 0.0165 0.0000 0
vt 0.0165 0.0019 0
vt 0.0000 -0.0019 0
vt 0.0000 0.0000 0
vt -0.0246 0.0000 0
vt -0.0246 -0.0019 0
vt 0.0019 0.0000 0
vt 0.0000 0.0000 0
vt 0.0000 -0.0165 0
vt 0.0019 -0.0165 0
f 3/3/3 1/1/1 2/2/2
f 1/1/1 3/3/3 4/4/4
f 9/9/9 11/11/11 12/12/12
f 11/11/11 9/9/9 10/10/10
f 7/7/7 5/5/5 6/6/6
f 5/5/5 7/7/7 8/8/8
f 13/13/13 15/15/15 16/16/16
f 15/15/15 13/13/13 14/14/14
f 17/17/17 19/19/19 20/20/20
f 19/19/19 17/17/17 18/18/18
f 21/21/21 23/23/23 24/24/24
f 23/23/23 21/21/21 22/22/22
